<svg version="1.1" id="Layer_1" xmlns="http://www.w3.org/2000/svg" xmlns:xlink="http://www.w3.org/1999/xlink" x="0px" y="0px"
	 width="100%" viewBox="0 0 1024 329" enable-background="new 0 0 1024 329" xml:space="preserve">
<path fill="#FDFDFD" opacity="1.000000" stroke="none" 
	d="
M13.000000,1.000000 
	C350.280426,1.000000 687.560852,1.000000 1024.920654,1.000000 
	C1024.920654,110.596519 1024.920654,220.193115 1024.920654,329.894836 
	C683.790344,329.894836 342.580597,329.894836 1.000000,329.894836 
	C1.000000,225.973434 1.000000,121.946419 1.348403,17.424412 
	C7.548133,13.098087 12.402507,8.559342 13.000000,1.000000 
M727.297180,112.689888 
	C727.297180,112.689888 727.176025,112.612610 726.379822,112.077583 
	C723.257996,112.104179 720.136230,112.130783 716.118530,111.995445 
	C713.887451,111.995445 711.656433,111.995445 709.205994,111.995445 
	C709.205994,115.949219 709.205994,119.483376 709.067200,123.803337 
	C709.112427,124.863197 709.157654,125.923065 709.029419,127.908241 
	C709.085510,147.611008 709.141541,167.313782 709.060547,187.894150 
	C708.996399,190.261078 708.932251,192.628021 708.143250,194.904053 
	C703.814697,194.600815 699.486145,194.297562 694.930603,193.308258 
	C693.614380,192.974869 692.298096,192.641479 690.923523,191.475677 
	C689.960083,186.626617 688.419678,181.803543 688.199707,176.920975 
	C687.990295,172.272903 687.778992,166.694397 690.049011,163.085052 
	C693.384827,157.781128 697.498108,151.748154 705.231812,152.795135 
	C708.258118,145.562149 703.600281,142.498627 699.188354,139.284744 
	C697.834106,139.859573 696.497864,140.426773 695.017090,140.114822 
	C695.017090,138.864441 695.017090,137.614044 695.017090,136.173859 
	C691.414185,136.173859 688.201599,136.173859 684.160156,136.040863 
	C680.421509,136.858887 681.071655,134.079407 681.020447,131.088303 
	C681.020447,126.812149 681.020447,122.535995 681.020447,118.214264 
	C674.122864,118.214264 667.740784,118.214264 660.938782,118.214264 
	C660.938782,124.378746 660.938782,130.170380 660.989624,136.003906 
	C660.989624,136.003906 660.965698,135.942581 660.058472,135.972244 
	C656.999268,135.972244 653.940002,135.972244 650.993469,135.972244 
	C650.743530,138.107117 650.573242,139.562302 649.526733,141.008087 
	C646.881348,140.044098 644.119385,139.313644 641.616699,138.063889 
	C637.375183,135.945740 633.465942,133.075256 629.092712,131.337204 
	C626.053040,130.129150 622.712341,130.734802 621.042969,135.104797 
	C619.058289,134.972260 617.075562,134.788986 615.088684,134.715042 
	C595.928772,134.001892 581.920044,143.815323 578.657654,161.751602 
	C577.305603,169.184937 578.838013,177.142944 578.662659,185.449387 
	C575.183655,188.968750 572.230774,188.353302 569.090088,184.727722 
	C567.181824,182.524887 564.010986,181.327164 562.378052,178.997559 
	C560.458130,176.258453 558.335205,172.702621 558.530151,169.643112 
	C558.916748,163.576752 561.907471,157.891312 567.146851,154.608154 
	C572.247864,151.411682 573.360413,146.233810 575.561218,141.562027 
	C576.875977,138.771301 576.031616,136.626556 571.835754,136.213150 
	C565.542969,136.139420 559.244507,135.900192 552.961426,136.112442 
	C551.457458,136.163239 549.680908,137.421829 548.580139,138.627487 
	C541.157959,146.756790 533.884033,155.021378 525.968262,163.908920 
	C525.968262,151.073914 525.968262,139.037247 526.194458,126.089218 
	C526.194458,121.302147 526.194458,116.515076 526.194458,111.409546 
	C519.600891,111.409546 513.538879,111.409546 507.191864,111.409546 
	C507.191864,118.803177 507.191864,125.904068 507.041290,133.882355 
	C506.976501,136.253799 506.911713,138.625259 506.153137,141.091202 
	C501.668945,144.943146 497.674652,143.884537 493.581512,140.214279 
	C491.282867,138.153107 488.563599,136.481369 485.834808,135.001083 
	C482.853729,133.383942 479.870697,133.129837 477.233795,136.826691 
	C470.721130,136.212326 464.161377,134.781036 457.705505,135.152847 
	C444.071808,135.938095 431.319122,147.782593 429.217773,161.188812 
	C428.255554,167.327682 428.406006,173.640945 427.645233,180.435211 
	C426.102081,179.628799 423.940491,179.218231 423.125824,177.945511 
	C420.062714,173.160156 419.555145,167.537216 422.295135,162.794128 
	C426.678009,155.207352 423.089020,147.547333 423.755493,139.981964 
	C423.802765,139.445618 423.225250,138.771912 422.795685,138.288849 
	C419.240173,134.290573 419.926178,130.041382 421.232452,125.273010 
	C422.817108,119.488472 422.971924,113.555122 419.120056,108.196716 
	C416.506653,104.561188 413.976440,104.171227 410.116821,107.140320 
	C401.155548,105.912758 396.283417,108.413216 394.123016,114.897995 
	C391.774780,113.502686 389.537201,111.821472 387.025146,110.849495 
	C385.986359,110.447525 384.359375,111.565697 382.063812,112.044518 
	C356.424622,112.044518 330.785461,112.044518 305.119049,112.044518 
	C305.119049,114.735641 305.119049,116.870880 304.958710,119.896301 
	C304.983276,122.902229 305.007843,125.908150 305.015015,129.697662 
	C304.765717,133.797729 307.555054,136.283737 310.752106,136.568741 
	C318.158173,137.228958 325.651184,136.914047 333.317230,137.913757 
	C333.232574,156.276489 333.147888,174.639206 332.297668,193.015991 
	C330.870056,194.801270 328.488098,196.435196 328.176880,198.397537 
	C326.679230,207.840515 332.597504,215.911575 341.826965,217.785248 
	C353.916321,220.239517 364.176300,212.050522 363.908051,199.778778 
	C363.804108,195.024094 362.353058,190.311172 362.062500,185.545883 
	C361.280823,172.725204 360.780884,159.887161 360.222321,147.053680 
	C360.189240,146.293457 360.391052,145.288101 360.880646,144.777924 
	C364.180298,141.339661 367.053131,137.468643 372.512604,136.884155 
	C376.202728,136.489075 380.253754,135.789124 383.303802,133.882492 
	C389.049133,130.291000 391.733917,130.276825 396.224091,136.296707 
	C396.129517,138.608887 395.961182,140.920761 395.952026,143.233276 
	C395.878296,161.820602 395.834595,180.408035 395.056183,199.009293 
	C393.378693,200.946686 390.108826,203.083633 390.321899,204.784103 
	C390.964264,209.909607 393.247192,214.954773 398.575348,216.924042 
	C406.598175,219.889206 419.901764,218.167496 423.698090,207.955856 
	C425.070496,204.264252 428.102264,201.189545 430.984070,196.937378 
	C434.605682,209.411102 444.547516,216.969910 455.649323,216.997681 
	C461.057281,217.011215 466.491699,217.323654 471.863892,216.885284 
	C475.402466,216.596542 478.990265,215.556793 482.306000,214.228989 
	C486.593811,212.511932 490.544281,209.955154 494.826202,208.219284 
	C496.320068,207.613693 498.773529,207.764252 500.076538,208.635132 
	C502.761627,210.429718 504.609253,213.761108 507.440308,214.998184 
	C514.708618,218.174225 527.615173,219.381607 534.130188,208.937027 
	C536.346802,205.383408 539.439026,202.375916 542.701477,198.428970 
	C545.025879,202.104416 547.878357,205.018433 548.765259,208.441696 
	C549.761780,212.288040 552.005432,214.818924 555.101074,215.308212 
	C563.783752,216.680649 572.755676,218.857788 580.293823,211.350571 
	C584.040283,207.619492 588.090942,208.460449 592.270996,211.539124 
	C595.577637,213.974518 599.657776,216.389938 603.581970,216.745667 
	C612.166748,217.523895 620.870972,217.009811 629.526001,216.956390 
	C630.484436,216.950485 631.451599,216.546677 632.395569,216.263550 
	C641.325684,213.585052 646.511597,206.218613 651.325073,199.315491 
	C654.098694,195.337830 656.977600,193.270767 661.186035,192.772507 
	C662.869629,196.319321 664.553162,199.866135 666.112183,204.316223 
	C666.943848,207.221909 666.873108,211.098938 668.768433,212.859619 
	C675.757996,219.352631 690.274658,219.569717 699.035950,214.835785 
	C701.754883,213.366653 706.769592,212.443588 708.681641,213.922699 
	C713.250732,217.457260 718.007141,217.242126 722.866211,216.903992 
	C729.302368,216.456100 740.105591,208.074600 739.080688,200.215775 
	C738.334534,194.493317 738.161621,188.677002 738.050781,182.896423 
	C737.949890,177.635345 743.860596,173.164368 749.047668,173.794785 
	C755.962158,174.635162 763.350952,176.903381 768.444214,169.376480 
	C768.648987,169.073929 769.370728,169.121185 770.006042,169.791656 
	C770.062927,170.856033 770.119873,171.920410 770.008362,173.910477 
	C770.068176,180.612244 770.128052,187.314011 770.050476,194.805435 
	C769.986084,195.869095 769.921753,196.932739 769.089783,198.001709 
	C764.042908,199.477615 762.303955,206.658737 765.868286,211.305145 
	C771.269470,218.346039 782.175720,220.766769 789.550110,215.726990 
	C793.780151,212.836044 797.299011,208.720779 800.573975,204.697525 
	C802.095093,202.828903 802.319031,199.879852 803.048279,197.396301 
	C804.547058,192.292160 802.295166,188.208557 799.714172,184.033493 
	C798.920349,182.749313 799.490723,180.562241 799.588440,178.797012 
	C799.971497,171.873444 801.207153,164.890656 800.666138,158.045227 
	C799.641907,145.085114 797.505005,132.216309 796.070190,119.282967 
	C795.693787,115.890617 794.574646,113.940567 790.717529,113.204178 
	C783.882263,112.648300 777.046997,112.092422 769.721802,111.496704 
	C769.721802,125.139771 769.721802,137.537125 769.721802,149.731720 
	C756.212646,149.731720 743.143188,149.731720 729.646545,149.731720 
	C729.646545,138.630051 729.646545,127.830391 729.838806,116.284767 
	C729.542358,114.939804 729.245850,113.594841 728.278992,112.045845 
	C727.965149,112.285797 727.651367,112.525749 727.297180,112.689888 
M884.621216,206.985367 
	C884.279663,208.036377 883.442871,209.215500 883.676270,210.117798 
	C885.287231,216.345825 890.744019,217.395599 899.380981,216.672073 
	C902.160095,216.439255 905.050232,214.833282 907.622681,215.306381 
	C917.830627,217.183731 927.942993,217.214844 938.253357,216.168869 
	C944.215942,215.563980 948.576599,213.263458 952.125183,208.758911 
	C959.264648,199.696045 963.916382,189.663132 963.942688,177.904465 
	C963.958679,170.759811 964.640686,163.466385 963.465271,156.502777 
	C961.444519,144.530212 952.839661,137.186676 942.878540,131.320419 
	C938.950195,129.006943 934.184937,130.686981 931.067993,135.074112 
	C924.856079,134.879135 918.499207,133.761703 912.276428,138.015625 
	C909.627380,140.108856 906.978271,142.202072 903.877808,144.651947 
	C903.877808,141.543564 903.877808,138.773849 904.056763,135.081192 
	C904.056763,127.152328 904.056763,119.223465 904.056763,111.246765 
	C897.457458,111.246765 891.395874,111.246765 885.078979,111.246765 
	C885.078979,126.171341 885.043518,140.791595 885.088196,155.411606 
	C885.140503,172.551971 885.262512,189.692139 884.621216,206.985367 
M869.108948,135.820374 
	C862.990662,135.820374 856.872375,135.820374 850.055359,135.820374 
	C850.055359,150.837112 850.200195,165.151627 849.996216,179.461182 
	C849.889160,186.971222 843.873413,192.248611 836.264038,192.151855 
	C828.854431,192.057602 825.071411,187.901642 824.937073,179.535675 
	C824.851501,174.207352 824.927063,168.876480 824.927734,163.546753 
	C824.928894,154.435440 824.928040,145.324127 824.928040,136.369080 
	C817.915771,136.369080 811.547058,136.369080 805.211914,136.369080 
	C805.211914,150.156265 805.211548,163.480316 805.212585,176.804367 
	C805.212646,178.136810 805.219360,179.469269 805.226440,180.801697 
	C805.267029,188.403580 806.521240,195.652802 810.626099,202.200073 
	C810.266785,204.474625 809.132141,206.966232 809.696533,208.982239 
	C811.263428,214.579636 817.183228,218.138535 824.830017,217.911591 
	C833.408081,217.656967 842.058960,215.652252 850.507202,216.383682 
	C859.325806,217.147156 867.346741,217.957123 873.595764,210.259369 
	C873.980530,209.785416 874.769958,209.656433 875.337646,209.311844 
	C879.295898,206.909027 880.509399,203.146835 878.922302,198.744614 
	C878.427734,197.372787 877.970459,195.844040 878.065979,194.425491 
	C878.906433,181.946732 880.152954,169.488235 880.676025,156.998489 
	C880.898499,151.686203 880.143555,146.211945 878.983276,141.000412 
	C878.027405,136.706604 874.679016,134.717178 869.108948,135.820374 
M45.239590,243.162613 
	C42.624176,246.803436 43.985222,250.003616 46.488117,252.929810 
	C48.539791,255.328430 50.613087,257.771912 53.013077,259.796936 
	C59.361084,265.153229 65.861694,270.589722 74.673111,270.917542 
	C79.880432,271.111298 85.123131,270.055603 90.350990,270.043945 
	C128.113556,269.959778 165.876404,269.994293 203.639145,270.014069 
	C205.291901,270.014954 206.942856,270.272919 208.597458,270.353455 
	C218.662369,270.843445 229.010437,273.717194 238.317947,267.287872 
	C243.908524,263.426056 251.485901,262.606262 254.918365,255.383286 
	C261.540649,241.448059 267.753906,227.951508 266.372864,211.461838 
	C264.999664,195.065750 266.772217,178.416229 266.940857,161.875549 
	C266.999817,156.092163 266.127655,150.300919 266.150848,144.515137 
	C266.182404,136.646652 267.544373,128.691513 266.763794,120.931679 
	C265.311310,106.492760 265.299194,92.033531 262.658447,77.518486 
	C259.853119,62.098892 253.759613,51.977177 239.120605,47.073982 
	C233.607422,45.227394 228.135040,45.221779 222.002274,48.359425 
	C178.339600,48.274212 134.676956,48.157383 91.014252,48.143646 
	C85.533470,48.141922 80.033241,48.483936 74.575211,49.010639 
	C57.110653,50.695992 42.117401,66.749420 42.058418,84.257736 
	C41.907394,129.087723 42.064205,173.918747 41.919170,218.748779 
	C41.892044,227.133881 42.424187,235.286560 45.239590,243.162613 
z"/>
<path fill="#F2F3F4" opacity="1.000000" stroke="none" 
	d="
M12.583334,1.000000 
	C12.402507,8.559342 7.548133,13.098087 1.348403,16.964706 
	C1.000000,14.958333 1.000000,12.916667 1.354095,10.400696 
	C3.805460,6.950927 5.902730,3.975463 8.000000,1.000000 
	C9.388889,1.000000 10.777778,1.000000 12.583334,1.000000 
z"/>
<path fill="#EDEEF0" opacity="1.000000" stroke="none" 
	d="
M7.502095,1.000000 
	C5.902730,3.975463 3.805460,6.950927 1.354095,9.963196 
	C1.000000,7.095963 1.000000,4.191926 1.000000,1.000000 
	C2.997173,1.000000 5.000681,1.000000 7.502095,1.000000 
z"/>
<path fill="#252E3B" opacity="1.000000" stroke="none" 
	d="
M45.991566,243.002197 
	C42.424187,235.286560 41.892044,227.133881 41.919170,218.748779 
	C42.064205,173.918747 41.907394,129.087723 42.058418,84.257736 
	C42.117401,66.749420 57.110653,50.695992 74.575211,49.010639 
	C80.033241,48.483936 85.533470,48.141922 91.014252,48.143646 
	C134.676956,48.157383 178.339600,48.274212 222.787003,48.502102 
	C242.863525,51.101357 257.823944,65.645889 257.924042,83.300354 
	C258.198730,131.743439 258.083038,180.189346 257.944397,228.633621 
	C257.919891,237.193970 254.069077,244.488632 248.565765,250.926529 
	C240.383224,260.498657 229.477264,263.749786 217.469101,263.805481 
	C184.656464,263.957703 151.842728,263.875244 119.029427,263.880890 
	C108.208275,263.882751 97.386284,263.781464 86.566154,263.883575 
	C69.342957,264.046112 54.944237,258.848572 45.991566,243.002197 
M86.068321,168.449081 
	C86.323563,169.379425 86.287643,170.593750 86.877106,171.198105 
	C98.259834,182.868286 109.658150,194.525085 121.227913,206.008682 
	C122.712242,207.481934 125.166260,207.978226 127.703911,209.101791 
	C128.161819,209.673126 128.619720,210.244446 129.042709,211.572205 
	C131.409363,218.177811 136.239197,222.484589 142.308487,225.538635 
	C143.261368,226.018112 144.580414,225.923920 145.716339,225.857788 
	C149.672791,225.627457 153.711014,225.701340 157.549637,224.875900 
	C160.964035,224.141678 164.813568,223.117523 167.323517,220.914154 
	C175.645859,213.608414 183.683319,205.937531 191.374191,197.966843 
	C196.828293,192.314301 201.372864,185.794830 206.646988,179.954514 
	C210.857513,175.291946 215.809738,171.928223 218.115433,165.061874 
	C221.263306,155.687531 219.855286,146.756531 215.376663,141.909225 
	C210.117371,136.216980 204.740387,130.633560 199.471878,124.949699 
	C197.221832,122.522255 195.316513,119.746902 192.910919,117.497078 
	C183.955414,109.121368 174.963104,100.776344 165.708786,92.737312 
	C164.160339,91.392220 161.242767,91.623222 158.177826,90.998581 
	C149.082901,87.803200 141.399826,89.851166 134.580429,96.691010 
	C120.583244,110.730171 106.386467,124.570618 92.244888,138.465424 
	C83.202103,147.350418 81.314621,156.241119 86.068321,168.449081 
z"/>
<path fill="#F9F9F9" opacity="1.000000" stroke="none" 
	d="
M621.977234,135.084091 
	C622.712341,130.734802 626.053040,130.129150 629.092712,131.337204 
	C633.465942,133.075256 637.375183,135.945740 641.616699,138.063889 
	C644.119385,139.313644 646.881348,140.044098 650.078369,141.421661 
	C650.629944,144.758377 650.629944,147.681503 650.629944,150.753723 
	C654.146423,150.753723 657.081299,150.753723 660.341187,150.896729 
	C660.901917,151.685043 661.137634,152.330322 661.273438,153.436249 
	C661.156616,166.596497 661.139832,179.296143 661.123047,191.995773 
	C656.977600,193.270767 654.098694,195.337830 651.325073,199.315491 
	C646.511597,206.218613 641.325684,213.585052 632.395569,216.263550 
	C631.451599,216.546677 630.484436,216.950485 629.526001,216.956390 
	C620.870972,217.009811 612.166748,217.523895 603.581970,216.745667 
	C599.657776,216.389938 595.577637,213.974518 592.270996,211.539124 
	C588.090942,208.460449 584.040283,207.619492 580.293823,211.350571 
	C572.755676,218.857788 563.783752,216.680649 555.101074,215.308212 
	C552.005432,214.818924 549.761780,212.288040 548.765259,208.441696 
	C547.878357,205.018433 545.025879,202.104416 542.701477,198.428970 
	C539.439026,202.375916 536.346802,205.383408 534.130188,208.937027 
	C527.615173,219.381607 514.708618,218.174225 507.440308,214.998184 
	C504.609253,213.761108 502.761627,210.429718 500.076538,208.635132 
	C498.773529,207.764252 496.320068,207.613693 494.826202,208.219284 
	C490.544281,209.955154 486.593811,212.511932 482.306000,214.228989 
	C478.990265,215.556793 475.402466,216.596542 471.863892,216.885284 
	C466.491699,217.323654 461.057281,217.011215 455.649323,216.997681 
	C444.547516,216.969910 434.605682,209.411102 430.984070,196.937378 
	C428.102264,201.189545 425.070496,204.264252 423.698090,207.955856 
	C419.901764,218.167496 406.598175,219.889206 398.575348,216.924042 
	C393.247192,214.954773 390.964264,209.909607 390.321899,204.784103 
	C390.108826,203.083633 393.378693,200.946686 395.502258,199.435684 
	C397.092865,201.799683 393.236664,206.288300 399.374939,205.959747 
	C400.486572,206.134689 401.233643,206.214310 401.996460,206.663177 
	C404.365265,208.011337 406.658722,209.346390 409.107025,209.756027 
	C409.858856,209.881821 411.034393,207.475128 412.427063,206.154938 
	C413.672852,204.727753 414.507507,203.373718 415.603333,201.972321 
	C415.699371,201.276215 415.534271,200.627472 415.290344,199.517746 
	C415.205200,179.487183 415.247009,159.917221 415.097839,140.348740 
	C415.086334,138.838669 413.731537,137.338852 413.051025,135.472382 
	C414.341278,132.119934 415.867950,129.206146 416.699188,126.105896 
	C417.104889,124.592903 419.982178,122.211807 416.120544,120.609528 
	C417.863770,114.557648 416.168884,110.538635 410.944397,107.855011 
	C410.900146,107.681450 410.863892,107.325058 410.863892,107.325058 
	C413.976440,104.171227 416.506653,104.561188 419.120056,108.196716 
	C422.971924,113.555122 422.817108,119.488472 421.232452,125.273010 
	C419.926178,130.041382 419.240173,134.290573 422.795685,138.288849 
	C423.225250,138.771912 423.802765,139.445618 423.755493,139.981964 
	C423.089020,147.547333 426.678009,155.207352 422.295135,162.794128 
	C419.555145,167.537216 420.062714,173.160156 423.125824,177.945511 
	C423.940491,179.218231 426.102081,179.628799 428.186157,180.326813 
	C429.172150,181.956787 429.509369,183.731430 430.080017,185.427521 
	C433.333740,195.097824 438.964508,202.622589 449.007690,206.490967 
	C451.107147,211.056564 458.482971,212.354279 462.392517,209.090759 
	C463.840851,208.973785 464.898560,208.930237 466.202576,209.183807 
	C468.570557,209.897430 471.018982,211.395996 472.194153,207.580017 
	C473.623596,207.186020 474.794739,207.035660 476.036530,207.256531 
	C477.541748,207.976318 479.198151,208.959274 480.367920,208.550308 
	C483.451874,207.472092 486.575653,206.140518 489.213654,204.253082 
	C492.094513,202.191895 495.090363,199.776154 496.856323,196.812073 
	C498.746521,193.639435 499.635437,189.576675 495.109436,186.669037 
	C495.054749,185.895889 495.048126,185.452637 495.280701,184.780121 
	C495.736084,183.698639 495.952209,182.846405 496.544891,181.995300 
	C500.220917,180.662903 503.520447,179.329361 506.900085,178.453369 
	C507.047546,182.942139 507.114868,186.973358 507.106323,191.459534 
	C507.084991,195.607712 507.139435,199.300903 507.115906,203.407593 
	C506.805115,207.392349 509.237183,206.081390 510.962280,206.098633 
	C510.919159,206.210632 510.884308,206.448105 510.932434,206.810760 
	C514.614380,211.537933 521.270874,211.265015 525.383118,206.285645 
	C525.851868,202.160110 526.445190,198.289398 525.995300,194.544022 
	C525.100037,187.090790 527.701050,181.518723 533.798218,177.311142 
	C538.596436,184.802155 543.253479,192.387161 548.256653,199.736465 
	C550.403687,202.890213 551.293030,207.971985 557.044495,207.357407 
	C561.501038,212.918610 571.319275,212.427979 574.259888,206.708801 
	C574.262878,205.390839 574.004517,204.248764 574.055542,202.884796 
	C576.467896,197.157654 572.127563,197.075226 568.896606,196.075562 
	C568.949097,196.047913 568.889771,196.150620 568.915161,195.766678 
	C568.193542,194.626099 567.446594,193.869461 566.421387,192.933075 
	C561.064087,185.246033 555.985107,177.738724 550.931946,169.799698 
	C551.989563,165.299820 553.021301,161.231674 554.196533,156.856995 
	C560.325256,150.032974 566.310486,143.515488 572.295715,136.998016 
	C576.031616,136.626556 576.875977,138.771301 575.561218,141.562027 
	C573.360413,146.233810 572.247864,151.411682 567.146851,154.608154 
	C561.907471,157.891312 558.916748,163.576752 558.530151,169.643112 
	C558.335205,172.702621 560.458130,176.258453 562.378052,178.997559 
	C564.010986,181.327164 567.181824,182.524887 569.090088,184.727722 
	C572.230774,188.353302 575.183655,188.968750 579.136597,185.399872 
	C580.751099,188.002243 581.545776,190.878464 583.093933,193.266068 
	C588.920959,202.252579 597.740784,206.482788 608.059937,208.542419 
	C609.113831,208.824921 610.100281,208.787796 611.507324,208.677032 
	C617.918030,207.648346 623.908081,206.693314 630.083557,206.025192 
	C633.954895,204.561798 637.801941,203.064545 641.217773,200.889877 
	C642.113464,200.319656 641.671204,197.647873 641.942505,195.594269 
	C643.524536,192.045944 645.007507,188.844543 646.792358,184.991364 
	C640.700317,184.991364 635.716248,184.836365 630.753906,185.096054 
	C629.449219,185.164322 627.822815,186.227707 627.007385,187.326355 
	C622.271790,193.706604 614.813171,195.754456 606.591675,192.682449 
	C600.214417,190.299561 596.710144,184.177338 597.332031,175.938705 
	C613.805481,175.938705 630.325195,175.938705 646.783508,175.938705 
	C648.809753,155.007782 641.023376,142.365845 621.977234,135.084091 
z"/>
<path fill="#27303F" opacity="1.000000" stroke="none" 
	d="
M770.176758,172.984802 
	C770.119873,171.920410 770.062927,170.856033 769.987549,168.962708 
	C769.530945,167.761703 769.094360,167.066528 768.654602,167.064545 
	C755.728027,167.006577 742.801147,167.017548 729.403137,167.017548 
	C729.403137,180.476608 729.403137,193.495499 729.403137,206.493011 
	C723.298035,206.493011 717.669128,206.493011 711.985535,206.194427 
	C711.034241,204.923660 710.137573,203.951477 709.170105,202.540634 
	C709.022278,199.732956 708.945190,197.363953 708.868103,194.994949 
	C708.932251,192.628021 708.996399,190.261078 709.508301,187.340866 
	C710.301636,185.420944 710.930054,184.057632 710.946167,182.687119 
	C711.040894,174.634888 710.996033,166.580994 710.991943,158.527649 
	C710.987122,149.016479 711.028809,139.504547 710.890320,129.995270 
	C710.875549,128.983170 709.791077,127.986671 709.202881,126.982925 
	C709.157654,125.923065 709.112427,124.863197 709.465332,123.341675 
	C712.247070,119.305794 714.630737,115.731583 717.014404,112.157379 
	C720.136230,112.130783 723.257996,112.104179 726.435120,112.604752 
	C725.462341,116.115402 727.155029,116.896378 729.646545,117.030724 
	C729.646545,127.830391 729.646545,138.630051 729.646545,149.731720 
	C743.143188,149.731720 756.212646,149.731720 769.721802,149.731720 
	C769.721802,137.537125 769.721802,125.139771 769.721802,111.496704 
	C777.046997,112.092422 783.882263,112.648300 790.747437,114.061707 
	C790.777344,145.316925 790.777344,175.714630 790.777344,206.466934 
	C784.586670,206.466934 779.314331,206.466934 773.978638,206.159027 
	C772.677795,204.561401 771.440186,203.271683 770.133179,201.586548 
	C769.994873,200.126221 769.926086,199.061310 769.857300,197.996399 
	C769.921753,196.932739 769.986084,195.869095 770.494019,194.299805 
	C771.621338,188.558472 772.574829,183.335876 772.829956,178.079407 
	C772.910095,176.428040 771.114075,174.685577 770.176758,172.984802 
z"/>
<path fill="#293142" opacity="1.000000" stroke="none" 
	d="
M629.898193,205.738281 
	C623.908081,206.693314 617.918030,207.648346 611.246643,208.481644 
	C609.707764,208.314194 608.850098,208.268494 607.992493,208.222794 
	C597.740784,206.482788 588.920959,202.252579 583.093933,193.266068 
	C581.545776,190.878464 580.751099,188.002243 579.334595,185.106354 
	C578.838013,177.142944 577.305603,169.184937 578.657654,161.751602 
	C581.920044,143.815323 595.928772,134.001892 615.088684,134.715042 
	C617.075562,134.788986 619.058289,134.972260 621.510132,135.094452 
	C641.023376,142.365845 648.809753,155.007782 646.783508,175.938705 
	C630.325195,175.938705 613.805481,175.938705 597.332031,175.938705 
	C596.710144,184.177338 600.214417,190.299561 606.591675,192.682449 
	C614.813171,195.754456 622.271790,193.706604 627.007385,187.326355 
	C627.822815,186.227707 629.449219,185.164322 630.753906,185.096054 
	C635.716248,184.836365 640.700317,184.991364 646.792358,184.991364 
	C645.007507,188.844543 643.524536,192.045944 641.643433,195.734222 
	C637.462891,199.393494 633.680542,202.565887 629.898193,205.738281 
M624.422302,154.204224 
	C620.487122,149.119278 615.000061,147.888443 609.284058,149.371689 
	C602.295410,151.185181 598.442566,156.376923 597.121765,163.750977 
	C607.407166,163.750977 617.569641,163.750977 628.411926,163.750977 
	C627.128357,160.521011 625.994507,157.667709 624.422302,154.204224 
z"/>
<path fill="#262E3D" opacity="1.000000" stroke="none" 
	d="
M903.877808,136.004135 
	C903.877808,138.773849 903.877808,141.543564 903.877808,144.651947 
	C906.978271,142.202072 909.627380,140.108856 912.791992,138.297394 
	C914.134521,139.007416 914.982544,139.841293 915.785278,139.799759 
	C922.217163,139.466751 928.642700,138.993896 935.062012,138.464752 
	C935.503906,138.428329 935.880127,137.593506 936.535400,137.114731 
	C936.783936,137.099472 937.229858,137.321320 937.224365,137.667618 
	C938.150024,138.329071 939.081238,138.644241 940.351807,139.019516 
	C944.534912,143.726776 949.305908,147.894516 952.012573,153.129578 
	C956.456909,161.725662 956.916504,171.303085 954.908447,180.814682 
	C952.331177,193.022293 946.673279,203.272156 933.901123,206.838974 
	C922.712769,209.963531 911.944580,208.876389 904.058899,198.248886 
	C903.834900,206.766953 903.834595,206.776581 895.453430,206.497467 
	C893.964783,206.447906 892.480042,206.281036 890.959595,205.773010 
	C890.590393,201.387177 890.203979,197.400146 889.932678,193.405273 
	C889.585876,188.299408 889.037842,183.184006 889.093933,178.078400 
	C889.252258,163.655136 889.663391,149.234482 889.999817,134.813400 
	C890.113892,129.923233 889.934875,124.985893 890.577026,120.161598 
	C891.060547,116.529655 893.208618,113.147568 897.587708,114.227150 
	C901.498840,115.191360 901.283386,118.573563 901.319397,122.205299 
	C901.365112,126.812920 902.954224,131.405228 903.877808,136.004135 
M929.112549,189.276001 
	C929.674683,188.822937 930.236755,188.369873 931.570618,187.958694 
	C936.454590,187.345047 937.134399,183.305023 937.899536,179.693680 
	C938.572449,176.517426 938.581604,173.192688 938.790344,169.927567 
	C939.235596,162.964600 935.166748,155.930267 929.084839,153.828613 
	C919.822937,147.149124 909.311096,149.789383 905.988037,160.614975 
	C904.171082,166.533905 903.881836,173.405945 904.795654,179.567596 
	C906.234070,189.266953 912.033875,193.086182 922.091980,193.626282 
	C924.976929,194.928802 926.544006,194.047836 929.112549,189.276001 
z"/>
<path fill="#27303F" opacity="1.000000" stroke="none" 
	d="
M573.746155,203.106689 
	C574.004517,204.248764 574.262878,205.390839 573.809875,206.568085 
	C567.732422,206.730545 562.366272,206.857834 557.000183,206.985107 
	C551.293030,207.971985 550.403687,202.890213 548.256653,199.736465 
	C543.253479,192.387161 538.596436,184.802155 533.798218,177.311142 
	C527.701050,181.518723 525.100037,187.090790 525.995300,194.544022 
	C526.445190,198.289398 525.851868,202.160110 524.933289,206.148224 
	C519.718933,206.364258 515.301636,206.406174 510.884308,206.448090 
	C510.884308,206.448105 510.919159,206.210632 510.916138,205.772079 
	C509.673340,204.553726 508.433624,203.773926 507.193909,202.994110 
	C507.139435,199.300903 507.084991,195.607712 507.482239,191.352676 
	C508.298218,185.050095 508.869812,179.313263 508.978912,173.567673 
	C509.150238,164.546921 509.092468,155.518677 508.919952,146.497665 
	C508.891022,144.986191 507.792175,143.495178 507.105591,141.744156 
	C506.964600,141.327957 506.905762,141.162338 506.846893,140.996704 
	C506.911713,138.625259 506.976501,136.253799 507.477295,133.347137 
	C508.947510,128.915726 510.115051,125.048866 510.981171,121.115646 
	C512.002502,116.477654 516.190979,112.297455 519.755920,113.243355 
	C523.971802,114.362007 524.039917,117.972496 524.107910,121.639046 
	C524.141296,123.437103 525.312195,125.214066 525.968262,127.000580 
	C525.968262,139.037247 525.968262,151.073914 525.968262,163.908920 
	C533.884033,155.021378 541.157959,146.756790 548.580139,138.627487 
	C549.680908,137.421829 551.457458,136.163239 552.961426,136.112442 
	C559.244507,135.900192 565.542969,136.139420 572.065735,136.605576 
	C566.310486,143.515488 560.325256,150.032974 553.893188,156.984924 
	C551.309143,159.847763 549.171936,162.276138 546.804016,164.966721 
	C548.187805,166.742676 549.546936,168.487045 550.906067,170.231415 
	C555.985107,177.738724 561.064087,185.246033 566.511414,193.243469 
	C567.549744,194.539276 568.219727,195.344955 568.889771,196.150620 
	C568.889771,196.150620 568.949097,196.047913 568.967896,196.408325 
	C570.573242,198.881378 572.159729,200.994034 573.746155,203.106689 
z"/>
<path fill="#F3F5F6" opacity="1.000000" stroke="none" 
	d="
M45.615578,243.082397 
	C54.944237,258.848572 69.342957,264.046112 86.566154,263.883575 
	C97.386284,263.781464 108.208275,263.882751 119.029427,263.880890 
	C151.842728,263.875244 184.656464,263.957703 217.469101,263.805481 
	C229.477264,263.749786 240.383224,260.498657 248.565765,250.926529 
	C254.069077,244.488632 257.919891,237.193970 257.944397,228.633621 
	C258.083038,180.189346 258.198730,131.743439 257.924042,83.300354 
	C257.823944,65.645889 242.863525,51.101357 223.247467,48.436531 
	C228.135040,45.221779 233.607422,45.227394 239.120605,47.073982 
	C253.759613,51.977177 259.853119,62.098892 262.658447,77.518486 
	C265.299194,92.033531 265.311310,106.492760 266.763794,120.931679 
	C267.544373,128.691513 266.182404,136.646652 266.150848,144.515137 
	C266.127655,150.300919 266.999817,156.092163 266.940857,161.875549 
	C266.772217,178.416229 264.999664,195.065750 266.372864,211.461838 
	C267.753906,227.951508 261.540649,241.448059 254.918365,255.383286 
	C251.485901,262.606262 243.908524,263.426056 238.317947,267.287872 
	C229.010437,273.717194 218.662369,270.843445 208.597458,270.353455 
	C206.942856,270.272919 205.291901,270.014954 203.639145,270.014069 
	C165.876404,269.994293 128.113556,269.959778 90.350990,270.043945 
	C85.123131,270.055603 79.880432,271.111298 74.673111,270.917542 
	C65.861694,270.589722 59.361084,265.153229 53.013077,259.796936 
	C50.613087,257.771912 48.539791,255.328430 46.488117,252.929810 
	C43.985222,250.003616 42.624176,246.803436 45.615578,243.082397 
z"/>
<path fill="#2A3342" opacity="1.000000" stroke="none" 
	d="
M811.351074,201.862045 
	C806.521240,195.652802 805.267029,188.403580 805.226440,180.801697 
	C805.219360,179.469269 805.212646,178.136810 805.212585,176.804367 
	C805.211548,163.480316 805.211914,150.156265 805.211914,136.369080 
	C811.547058,136.369080 817.915771,136.369080 824.928040,136.369080 
	C824.928040,145.324127 824.928894,154.435440 824.927734,163.546753 
	C824.927063,168.876480 824.851501,174.207352 824.937073,179.535675 
	C825.071411,187.901642 828.854431,192.057602 836.264038,192.151855 
	C843.873413,192.248611 849.889160,186.971222 849.996216,179.461182 
	C850.200195,165.151627 850.055359,150.837112 850.055359,135.820374 
	C856.872375,135.820374 862.990662,135.820374 869.610596,136.319046 
	C870.112244,159.930237 870.112244,183.042755 870.112244,206.348801 
	C868.545715,206.566513 867.271301,206.743622 865.556396,206.799042 
	C862.079163,206.736328 859.042480,206.795319 855.639648,206.737640 
	C854.000000,206.691757 852.726501,206.762573 851.403687,206.404419 
	C851.354309,203.273804 851.354309,200.572144 851.354309,198.867416 
	C845.799438,202.013474 840.398315,205.072433 834.652466,208.092560 
	C833.203186,208.326859 832.098694,208.600021 830.643066,208.777023 
	C828.857361,208.560623 827.422791,208.440399 825.601196,208.209488 
	C820.593079,206.019882 815.972046,203.940964 811.351074,201.862045 
z"/>
<path fill="#283040" opacity="1.000000" stroke="none" 
	d="
M448.998474,206.102310 
	C438.964508,202.622589 433.333740,195.097824 430.080017,185.427521 
	C429.509369,183.731430 429.172150,181.956787 428.389465,180.046783 
	C428.406006,173.640945 428.255554,167.327682 429.217773,161.188812 
	C431.319122,147.782593 444.071808,135.938095 457.705505,135.152847 
	C464.161377,134.781036 470.721130,136.212326 477.936096,137.000092 
	C488.852448,141.708389 494.450562,149.529678 495.644958,160.728699 
	C494.257782,160.883240 493.130463,161.008850 491.553009,161.064667 
	C488.067352,161.053879 485.031769,161.112854 481.595367,161.099106 
	C480.127686,161.147308 479.060852,161.268250 477.671234,161.242844 
	C476.814240,160.068359 476.280060,159.040207 475.704285,157.677582 
	C473.115448,152.179520 468.853851,149.632660 463.222534,150.109177 
	C456.805756,150.652130 452.453522,154.505035 450.483795,160.451889 
	C448.030334,167.859055 448.084747,175.491409 450.510498,182.943359 
	C452.008972,187.546783 454.772705,191.118042 460.329346,192.141449 
	C466.305450,194.541092 470.028046,190.719391 474.475830,188.022675 
	C477.226196,185.720932 479.617096,183.433716 482.419067,181.073669 
	C484.217499,181.054031 485.604828,181.107239 487.077087,181.509277 
	C489.788513,182.908524 492.415009,183.958939 495.041504,185.009369 
	C495.048126,185.452637 495.054749,185.895889 494.967804,187.005737 
	C491.814087,197.267838 484.957825,203.127472 475.965912,206.885284 
	C474.794739,207.035660 473.623596,207.186020 471.790619,207.578918 
	C469.404633,208.176529 467.680450,208.531616 465.956268,208.886703 
	C464.898560,208.930237 463.840851,208.973785 461.982178,209.015671 
	C457.120331,208.043442 453.059387,207.072876 448.998474,206.102310 
z"/>
<path fill="#252D3D" opacity="1.000000" stroke="none" 
	d="
M661.373413,152.975616 
	C661.137634,152.330322 660.901917,151.685043 660.330200,150.547699 
	C657.168945,146.681931 656.980713,143.486069 660.155396,140.072266 
	C660.967102,139.199387 660.724121,137.345673 660.965698,135.942566 
	C660.965698,135.942581 660.989624,136.003906 661.343384,135.994354 
	C662.605347,135.660812 663.956970,135.601822 664.338623,134.963165 
	C665.487915,133.040070 665.976318,130.690231 667.257080,128.886398 
	C668.573608,127.032089 670.265015,124.861542 672.249573,124.199081 
	C675.303894,123.179489 675.469421,126.168709 676.434265,128.304901 
	C677.147278,129.883514 679.328674,130.798889 680.855896,132.009766 
	C681.071655,134.079407 680.421509,136.858887 684.624634,136.444885 
	C689.240479,140.496811 693.324951,144.168610 689.516174,150.591507 
	C686.476746,150.682968 683.889771,150.682968 681.014893,150.682968 
	C681.014893,162.239990 680.759399,173.229538 681.197327,184.191360 
	C681.304688,186.880188 683.677856,189.478500 685.216858,192.375946 
	C686.863281,193.719482 688.267212,194.855972 689.747986,195.881531 
	C693.377991,198.395569 693.750305,200.796463 691.085449,204.467545 
	C690.312866,205.531830 689.695740,206.709000 688.611816,207.914642 
	C687.143616,207.994370 686.070862,207.993896 684.747559,207.717194 
	C673.572083,206.379227 667.059265,199.393417 665.438782,189.605270 
	C663.888794,180.242554 664.803040,170.383499 665.418762,160.792969 
	C665.674622,156.807602 664.941589,154.449051 661.373413,152.975616 
z"/>
<path fill="#F9F9FA" opacity="1.000000" stroke="none" 
	d="
M890.993530,206.168350 
	C892.480042,206.281036 893.964783,206.447906 895.453430,206.497467 
	C903.834595,206.776581 903.834900,206.766953 904.058899,198.248886 
	C911.944580,208.876389 922.712769,209.963531 933.901123,206.838974 
	C946.673279,203.272156 952.331177,193.022293 954.908447,180.814682 
	C956.916504,171.303085 956.456909,161.725662 952.012573,153.129578 
	C949.305908,147.894516 944.534912,143.726776 940.184937,138.728363 
	C938.862427,138.025192 938.046143,137.673248 937.229858,137.321320 
	C937.229858,137.321320 936.783936,137.099472 936.313721,136.913269 
	C934.562561,136.175446 933.281555,135.623825 932.000549,135.072205 
	C934.184937,130.686981 938.950195,129.006943 942.878540,131.320419 
	C952.839661,137.186676 961.444519,144.530212 963.465271,156.502777 
	C964.640686,163.466385 963.958679,170.759811 963.942688,177.904465 
	C963.916382,189.663132 959.264648,199.696045 952.125183,208.758911 
	C948.576599,213.263458 944.215942,215.563980 938.253357,216.168869 
	C927.942993,217.214844 917.830627,217.183731 907.622681,215.306381 
	C905.050232,214.833282 902.160095,216.439255 899.380981,216.672073 
	C890.744019,217.395599 885.287231,216.345825 883.676270,210.117798 
	C883.442871,209.215500 884.279663,208.036377 885.338745,206.827957 
	C887.701965,206.503143 889.347778,206.335754 890.993530,206.168350 
z"/>
<path fill="#F7F8F8" opacity="1.000000" stroke="none" 
	d="
M416.112122,121.001350 
	C419.982178,122.211807 417.104889,124.592903 416.699188,126.105896 
	C415.867950,129.206146 414.341278,132.119934 412.611664,135.545441 
	C408.820618,136.040176 405.518860,136.099945 401.851074,136.084717 
	C399.988007,135.955215 398.490936,135.900696 396.993835,135.846176 
	C391.733917,130.276825 389.049133,130.291000 383.303802,133.882492 
	C380.253754,135.789124 376.202728,136.489075 372.512604,136.884155 
	C367.053131,137.468643 364.180298,141.339661 360.880646,144.777924 
	C360.391052,145.288101 360.189240,146.293457 360.222321,147.053680 
	C360.780884,159.887161 361.280823,172.725204 362.062500,185.545883 
	C362.353058,190.311172 363.804108,195.024094 363.908051,199.778778 
	C364.176300,212.050522 353.916321,220.239517 341.826965,217.785248 
	C332.597504,215.911575 326.679230,207.840515 328.176880,198.397537 
	C328.488098,196.435196 330.870056,194.801270 332.801910,193.189362 
	C333.322845,193.684341 333.475494,193.916504 333.678864,194.511108 
	C333.531860,198.048996 333.470123,201.135025 333.227966,204.491302 
	C334.365173,205.509338 335.682831,206.257126 337.040955,207.366928 
	C339.020233,211.939941 342.900696,212.445465 346.575958,211.744934 
	C349.296967,211.226303 353.006866,210.661163 353.248901,206.263489 
	C353.652740,206.113647 353.813843,206.052521 354.338989,205.952759 
	C359.257050,202.128082 359.082275,198.066986 354.191132,195.534760 
	C354.168243,175.716980 354.230438,156.360565 354.655334,136.995026 
	C360.117706,135.637527 365.340820,134.623444 370.266998,132.805054 
	C372.879272,131.840790 377.059479,133.720612 378.329590,129.089554 
	C379.102173,128.954666 379.546265,128.895721 380.384460,128.911072 
	C384.963654,128.989319 382.868591,125.843132 383.456665,123.561745 
	C383.531158,121.451843 383.446686,119.743286 383.469635,117.657219 
	C383.384674,115.517311 383.192261,113.754913 382.999878,111.992516 
	C384.359375,111.565697 385.986359,110.447525 387.025146,110.849495 
	C389.537201,111.821472 391.774780,113.502686 394.532654,115.358597 
	C394.827209,119.824020 395.342407,123.510338 399.717834,125.237389 
	C399.727478,125.223831 399.727325,125.252563 399.853577,125.486412 
	C400.317810,125.778015 400.655853,125.835770 401.333435,126.105576 
	C407.876434,128.321899 412.498413,126.030823 416.112122,121.001350 
z"/>
<path fill="#F7F8F8" opacity="1.000000" stroke="none" 
	d="
M684.998169,207.993408 
	C686.070862,207.993896 687.143616,207.994370 689.007568,207.956711 
	C691.675232,207.439621 693.551575,206.960693 695.652222,206.424515 
	C695.652222,203.351028 695.696716,200.371368 695.629578,197.394211 
	C695.604004,196.257950 695.322449,195.127441 695.157593,193.994308 
	C699.486145,194.297562 703.814697,194.600815 708.505676,194.949493 
	C708.945190,197.363953 709.022278,199.732956 709.083984,202.925049 
	C708.845276,205.977280 709.323853,207.446457 712.040222,206.493011 
	C717.669128,206.493011 723.298035,206.493011 729.403137,206.493011 
	C729.403137,193.495499 729.403137,180.476608 729.403137,167.017548 
	C742.801147,167.017548 755.728027,167.006577 768.654602,167.064545 
	C769.094360,167.066528 769.530945,167.761703 769.910339,168.569626 
	C769.370728,169.121185 768.648987,169.073929 768.444214,169.376480 
	C763.350952,176.903381 755.962158,174.635162 749.047668,173.794785 
	C743.860596,173.164368 737.949890,177.635345 738.050781,182.896423 
	C738.161621,188.677002 738.334534,194.493317 739.080688,200.215775 
	C740.105591,208.074600 729.302368,216.456100 722.866211,216.903992 
	C718.007141,217.242126 713.250732,217.457260 708.681641,213.922699 
	C706.769592,212.443588 701.754883,213.366653 699.035950,214.835785 
	C690.274658,219.569717 675.757996,219.352631 668.768433,212.859619 
	C666.873108,211.098938 666.943848,207.221909 666.505981,204.027252 
	C672.360474,207.589890 678.461060,208.720078 684.998169,207.993408 
z"/>
<path fill="#F9F9FA" opacity="1.000000" stroke="none" 
	d="
M810.988586,202.031067 
	C815.972046,203.940964 820.593079,206.019882 825.679382,208.532867 
	C827.786926,210.266739 829.456055,212.958679 830.994202,208.873199 
	C832.098694,208.600021 833.203186,208.326859 834.745239,208.459976 
	C836.988586,209.127548 838.873413,209.848785 840.584106,209.555313 
	C844.254700,208.925583 847.835449,207.772308 851.453003,206.833389 
	C852.726501,206.762573 854.000000,206.691757 855.712952,207.137604 
	C859.579102,209.358170 862.973511,210.628860 865.996948,206.920731 
	C867.271301,206.743622 868.545715,206.566513 870.112244,206.348801 
	C870.112244,183.042755 870.112244,159.930237 870.082092,136.340973 
	C874.679016,134.717178 878.027405,136.706604 878.983276,141.000412 
	C880.143555,146.211945 880.898499,151.686203 880.676025,156.998489 
	C880.152954,169.488235 878.906433,181.946732 878.065979,194.425491 
	C877.970459,195.844040 878.427734,197.372787 878.922302,198.744614 
	C880.509399,203.146835 879.295898,206.909027 875.337646,209.311844 
	C874.769958,209.656433 873.980530,209.785416 873.595764,210.259369 
	C867.346741,217.957123 859.325806,217.147156 850.507202,216.383682 
	C842.058960,215.652252 833.408081,217.656967 824.830017,217.911591 
	C817.183228,218.138535 811.263428,214.579636 809.696533,208.982239 
	C809.132141,206.966232 810.266785,204.474625 810.988586,202.031067 
z"/>
<path fill="#F9F9FA" opacity="1.000000" stroke="none" 
	d="
M774.041931,206.466934 
	C779.314331,206.466934 784.586670,206.466934 790.777344,206.466934 
	C790.777344,175.714630 790.777344,145.316925 790.878479,114.459869 
	C794.574646,113.940567 795.693787,115.890617 796.070190,119.282967 
	C797.505005,132.216309 799.641907,145.085114 800.666138,158.045227 
	C801.207153,164.890656 799.971497,171.873444 799.588440,178.797012 
	C799.490723,180.562241 798.920349,182.749313 799.714172,184.033493 
	C802.295166,188.208557 804.547058,192.292160 803.048279,197.396301 
	C802.319031,199.879852 802.095093,202.828903 800.573975,204.697525 
	C797.299011,208.720779 793.780151,212.836044 789.550110,215.726990 
	C782.175720,220.766769 771.269470,218.346039 765.868286,211.305145 
	C762.303955,206.658737 764.042908,199.477615 769.473511,197.999054 
	C769.926086,199.061310 769.994873,200.126221 770.049561,201.997543 
	C769.581055,205.982712 770.463257,207.699432 774.041931,206.466934 
z"/>
<path fill="#2C3544" opacity="1.000000" stroke="none" 
	d="
M890.959595,205.773041 
	C889.347778,206.335754 887.701965,206.503143 885.705261,206.751465 
	C885.262512,189.692139 885.140503,172.551971 885.088196,155.411606 
	C885.043518,140.791595 885.078979,126.171341 885.078979,111.246765 
	C891.395874,111.246765 897.457458,111.246765 904.056763,111.246765 
	C904.056763,119.223465 904.056763,127.152328 903.967285,135.542664 
	C902.954224,131.405228 901.365112,126.812920 901.319397,122.205299 
	C901.283386,118.573563 901.498840,115.191360 897.587708,114.227150 
	C893.208618,113.147568 891.060547,116.529655 890.577026,120.161598 
	C889.934875,124.985893 890.113892,129.923233 889.999817,134.813400 
	C889.663391,149.234482 889.252258,163.655136 889.093933,178.078400 
	C889.037842,183.184006 889.585876,188.299408 889.932678,193.405273 
	C890.203979,197.400146 890.590393,201.387177 890.959595,205.773041 
z"/>
<path fill="#F9F9F9" opacity="1.000000" stroke="none" 
	d="
M492.003113,161.134445 
	C493.130463,161.008850 494.257782,160.883240 495.644958,160.728699 
	C494.450562,149.529678 488.852448,141.708389 478.318237,137.014313 
	C479.870697,133.129837 482.853729,133.383942 485.834808,135.001083 
	C488.563599,136.481369 491.282867,138.153107 493.581512,140.214279 
	C497.674652,143.884537 501.668945,144.943146 506.500000,141.043945 
	C506.905762,141.162338 506.964600,141.327957 507.026733,142.207306 
	C506.958069,151.948746 506.886139,160.976486 506.451172,169.996796 
	C503.550171,169.252808 501.022430,167.953125 498.471985,167.906952 
	C494.275574,167.830978 489.998016,169.205002 485.878662,168.776321 
	C481.953827,168.367874 478.320221,166.297791 477.994019,161.389191 
	C479.060852,161.268250 480.127686,161.147308 481.678772,161.446564 
	C485.598633,163.712799 489.032349,165.533905 492.003113,161.134445 
z"/>
<path fill="#F6F7F8" opacity="1.000000" stroke="none" 
	d="
M685.009338,192.118439 
	C683.677856,189.478500 681.304688,186.880188 681.197327,184.191360 
	C680.759399,173.229538 681.014893,162.239990 681.014893,150.682968 
	C683.889771,150.682968 686.476746,150.682968 689.936096,150.715607 
	C692.077271,150.748260 693.346008,150.748260 695.161621,150.748260 
	C695.161621,147.236710 695.161621,144.115341 695.161621,140.993973 
	C696.497864,140.426773 697.834106,139.859573 699.188354,139.284744 
	C703.600281,142.498627 708.258118,145.562149 705.231812,152.795135 
	C697.498108,151.748154 693.384827,157.781128 690.049011,163.085052 
	C687.778992,166.694397 687.990295,172.272903 688.199707,176.920975 
	C688.419678,181.803543 689.960083,186.626617 690.539062,192.026230 
	C688.439514,192.424011 686.724426,192.271225 685.009338,192.118439 
z"/>
<path fill="#27303F" opacity="1.000000" stroke="none" 
	d="
M383.362244,118.034729 
	C383.446686,119.743286 383.531158,121.451843 383.162018,123.649399 
	C381.802429,125.704521 380.896393,127.270645 379.990387,128.836777 
	C379.546265,128.895721 379.102173,128.954666 377.873840,129.015686 
	C373.392090,128.957596 369.694580,128.897415 366.075867,128.490311 
	C368.546021,127.197289 371.044281,126.446838 373.283600,125.222633 
	C374.403992,124.610123 375.751984,123.105835 375.711060,122.054977 
	C375.672241,121.058617 373.985046,119.334396 372.969696,119.294884 
	C365.609467,119.008499 358.229675,118.866997 350.868408,119.088722 
	C345.980438,119.235947 341.096008,120.599312 336.240295,120.447571 
	C329.684052,120.242691 323.169037,118.898018 316.608734,118.516083 
	C314.993439,118.422043 312.858093,119.832741 311.774017,121.197083 
	C311.238007,121.871651 312.447327,124.058014 313.056824,125.478912 
	C313.560486,126.653038 314.343231,127.707466 314.554718,128.892273 
	C311.082245,128.951111 308.057312,128.932602 305.032410,128.914078 
	C305.007843,125.908150 304.983276,122.902229 305.414185,119.442482 
	C308.273041,117.998077 310.648712,116.238243 313.084595,116.150581 
	C323.424866,115.778419 333.783203,115.920540 344.134613,115.837433 
	C349.338379,115.795654 354.558807,115.911438 359.740875,115.533409 
	C367.795319,114.945839 375.870697,113.542076 383.362244,118.034729 
z"/>
<path fill="#323A46" opacity="1.000000" stroke="none" 
	d="
M383.469666,117.657219 
	C375.870697,113.542076 367.795319,114.945839 359.740875,115.533409 
	C354.558807,115.911438 349.338379,115.795654 344.134613,115.837433 
	C333.783203,115.920540 323.424866,115.778419 313.084595,116.150581 
	C310.648712,116.238243 308.273041,117.998077 305.494354,118.997391 
	C305.119049,116.870880 305.119049,114.735641 305.119049,112.044518 
	C330.785461,112.044518 356.424622,112.044518 382.531860,112.018517 
	C383.192261,113.754913 383.384674,115.517311 383.469666,117.657219 
z"/>
<path fill="#2F3848" opacity="1.000000" stroke="none" 
	d="
M684.747559,207.717194 
	C678.461060,208.720078 672.360474,207.589890 666.568237,203.575607 
	C664.553162,199.866135 662.869629,196.319321 661.154541,192.384140 
	C661.139832,179.296143 661.156616,166.596497 661.273438,153.436249 
	C664.941589,154.449051 665.674622,156.807602 665.418762,160.792969 
	C664.803040,170.383499 663.888794,180.242554 665.438782,189.605270 
	C667.059265,199.393417 673.572083,206.379227 684.747559,207.717194 
z"/>
<path fill="#2F3848" opacity="1.000000" stroke="none" 
	d="
M396.608948,136.071442 
	C398.490936,135.900696 399.988007,135.955215 401.768799,136.522675 
	C401.035370,143.182617 399.368713,149.307495 399.158203,155.481995 
	C398.865448,164.068848 399.914673,172.692688 399.922852,181.301147 
	C399.930603,189.488617 399.338623,197.676636 399.010345,205.864426 
	C393.236664,206.288300 397.092865,201.799683 395.865051,199.428757 
	C395.834595,180.408035 395.878296,161.820602 395.952026,143.233276 
	C395.961182,140.920761 396.129517,138.608887 396.608948,136.071442 
z"/>
<path fill="#2F3848" opacity="1.000000" stroke="none" 
	d="
M680.938171,131.549042 
	C679.328674,130.798889 677.147278,129.883514 676.434265,128.304901 
	C675.469421,126.168709 675.303894,123.179489 672.249573,124.199081 
	C670.265015,124.861542 668.573608,127.032089 667.257080,128.886398 
	C665.976318,130.690231 665.487915,133.040070 664.338623,134.963165 
	C663.956970,135.601822 662.605347,135.660812 661.317993,135.973404 
	C660.938782,130.170380 660.938782,124.378746 660.938782,118.214264 
	C667.740784,118.214264 674.122864,118.214264 681.020447,118.214264 
	C681.020447,122.535995 681.020447,126.812149 680.938171,131.549042 
z"/>
<path fill="#F7F8F8" opacity="1.000000" stroke="none" 
	d="
M305.023712,129.305878 
	C308.057312,128.932602 311.082245,128.951111 315.015533,128.966614 
	C320.614868,128.916550 325.305817,128.869507 330.249146,128.907074 
	C330.669525,129.049042 330.837463,129.106415 331.057831,129.474411 
	C331.765015,130.191650 332.419769,130.598282 333.196594,131.420151 
	C333.248810,133.555084 333.178864,135.274796 333.108948,136.994507 
	C325.651184,136.914047 318.158173,137.228958 310.752106,136.568741 
	C307.555054,136.283737 304.765717,133.797729 305.023712,129.305878 
z"/>
<path fill="#484F5E" opacity="1.000000" stroke="none" 
	d="
M333.213074,137.454132 
	C333.178864,135.274796 333.248810,133.555084 333.297760,131.083832 
	C333.186157,129.887466 333.095490,129.442642 333.349548,129.092911 
	C334.742401,132.006424 336.354370,134.760117 336.687561,137.660675 
	C337.055145,140.860275 336.058929,144.190552 335.987701,147.471085 
	C335.680450,161.617279 335.534363,175.767044 335.201843,189.912521 
	C335.169098,191.305252 334.264221,192.677490 333.764130,194.059235 
	C333.475494,193.916504 333.322845,193.684341 333.184692,193.182343 
	C333.147888,174.639206 333.232574,156.276489 333.213074,137.454132 
z"/>
<path fill="#2C3544" opacity="1.000000" stroke="none" 
	d="
M526.081360,126.544891 
	C525.312195,125.214066 524.141296,123.437103 524.107910,121.639046 
	C524.039917,117.972496 523.971802,114.362007 519.755920,113.243355 
	C516.190979,112.297455 512.002502,116.477654 510.981171,121.115646 
	C510.115051,125.048866 508.947510,128.915726 507.552582,132.908447 
	C507.191864,125.904068 507.191864,118.803177 507.191864,111.409546 
	C513.538879,111.409546 519.600891,111.409546 526.194458,111.409546 
	C526.194458,116.515076 526.194458,121.302147 526.081360,126.544891 
z"/>
<path fill="#2F3848" opacity="1.000000" stroke="none" 
	d="
M660.512085,135.957397 
	C660.724121,137.345673 660.967102,139.199387 660.155396,140.072266 
	C656.980713,143.486069 657.168945,146.681931 660.005249,150.404678 
	C657.081299,150.753723 654.146423,150.753723 650.629944,150.753723 
	C650.629944,147.681503 650.629944,144.758377 650.516418,141.426361 
	C650.573242,139.562302 650.743530,138.107117 650.993469,135.972244 
	C653.940002,135.972244 656.999268,135.972244 660.512085,135.957397 
z"/>
<path fill="#363E4E" opacity="1.000000" stroke="none" 
	d="
M709.116150,127.445587 
	C709.791077,127.986671 710.875549,128.983170 710.890320,129.995270 
	C711.028809,139.504547 710.987122,149.016479 710.991943,158.527649 
	C710.996033,166.580994 711.040894,174.634888 710.946167,182.687119 
	C710.930054,184.057632 710.301636,185.420944 709.576843,186.902069 
	C709.141541,167.313782 709.085510,147.611008 709.116150,127.445587 
z"/>
<path fill="#2F3848" opacity="1.000000" stroke="none" 
	d="
M695.089355,140.554398 
	C695.161621,144.115341 695.161621,147.236710 695.161621,150.748260 
	C693.346008,150.748260 692.077271,150.748260 690.388611,150.624146 
	C693.324951,144.168610 689.240479,140.496811 685.039062,136.511383 
	C688.201599,136.173859 691.414185,136.173859 695.017090,136.173859 
	C695.017090,137.614044 695.017090,138.864441 695.089355,140.554398 
z"/>
<path fill="#2F3848" opacity="1.000000" stroke="none" 
	d="
M685.216858,192.375946 
	C686.724426,192.271225 688.439514,192.424011 690.568237,192.442444 
	C692.298096,192.641479 693.614380,192.974869 695.044067,193.651276 
	C695.322449,195.127441 695.604004,196.257950 695.629578,197.394211 
	C695.696716,200.371368 695.652222,203.351028 695.652222,206.424515 
	C693.551575,206.960693 691.675232,207.439621 689.403076,207.876495 
	C689.695740,206.709000 690.312866,205.531830 691.085449,204.467545 
	C693.750305,200.796463 693.377991,198.395569 689.747986,195.881531 
	C688.267212,194.855972 686.863281,193.719482 685.216858,192.375946 
z"/>
<path fill="#363E4E" opacity="1.000000" stroke="none" 
	d="
M399.708191,125.250946 
	C395.342407,123.510338 394.827209,119.824020 394.878235,115.406555 
	C396.283417,108.413216 401.155548,105.912758 410.490356,107.232689 
	C410.863892,107.325058 410.900146,107.681450 410.675171,108.133682 
	C409.312317,108.724174 408.177856,108.907455 407.036041,108.993454 
	C399.124939,109.589241 395.717194,115.303337 398.963684,122.486633 
	C399.351593,123.344917 399.466644,124.326508 399.708191,125.250946 
z"/>
<path fill="#323A46" opacity="1.000000" stroke="none" 
	d="
M931.534302,135.073166 
	C933.281555,135.623825 934.562561,136.175446 936.065247,136.928528 
	C935.880127,137.593506 935.503906,138.428329 935.062012,138.464752 
	C928.642700,138.993896 922.217163,139.466751 915.785278,139.799759 
	C914.982544,139.841293 914.134521,139.007416 913.139282,138.248672 
	C918.499207,133.761703 924.856079,134.879135 931.534302,135.073166 
z"/>
<path fill="#363E4E" opacity="1.000000" stroke="none" 
	d="
M716.566467,112.076408 
	C714.630737,115.731583 712.247070,119.305794 709.534668,122.948769 
	C709.205994,119.483376 709.205994,115.949219 709.205994,111.995445 
	C711.656433,111.995445 713.887451,111.995445 716.566467,112.076408 
z"/>
<path fill="#363E4E" opacity="1.000000" stroke="none" 
	d="
M770.092529,173.447632 
	C771.114075,174.685577 772.910095,176.428040 772.829956,178.079407 
	C772.574829,183.335876 771.621338,188.558472 770.562744,193.904968 
	C770.128052,187.314011 770.068176,180.612244 770.092529,173.447632 
z"/>
<path fill="#363E4E" opacity="1.000000" stroke="none" 
	d="
M729.742676,116.657745 
	C727.155029,116.896378 725.462341,116.115402 726.833252,112.872269 
	C727.176025,112.612610 727.297180,112.689888 727.615845,112.755363 
	C728.272827,112.630524 728.611145,112.440208 728.949402,112.249893 
	C729.245850,113.594841 729.542358,114.939804 729.742676,116.657745 
z"/>
<path fill="#27303F" opacity="1.000000" stroke="none" 
	d="
M728.614197,112.147873 
	C728.611145,112.440208 728.272827,112.630524 727.636108,112.793274 
	C727.651367,112.525749 727.965149,112.285797 728.614197,112.147873 
z"/>
<path fill="#F4F5F5" opacity="1.000000" stroke="none" 
	d="
M129.077621,210.815765 
	C128.619720,210.244446 128.161819,209.673126 127.311325,208.698914 
	C113.324432,194.756042 99.730125,181.216064 86.135811,167.676071 
	C81.314621,156.241119 83.202103,147.350418 92.244888,138.465424 
	C106.386467,124.570618 120.583244,110.730171 134.580429,96.691010 
	C141.399826,89.851166 149.082901,87.803200 158.737152,91.352463 
	C161.062912,92.927162 163.055542,93.918739 164.560791,95.404198 
	C179.970169,110.611061 195.375351,125.823929 210.606644,141.208435 
	C215.113052,145.760162 217.371628,151.388016 215.558990,158.044189 
	C212.589172,159.772369 209.656906,161.132828 207.434784,163.241577 
	C205.097763,165.459396 203.754135,168.720276 201.427444,170.953430 
	C194.148529,177.939697 186.507599,184.547989 179.202652,191.508148 
	C172.163086,198.215424 165.471786,205.288498 158.423859,211.986603 
	C154.296204,215.909409 150.204880,220.791107 143.378357,216.548950 
	C143.134567,216.397461 141.565140,218.379196 140.249115,219.249481 
	C136.282349,216.360092 132.679977,213.587936 129.077621,210.815765 
M172.000671,117.999054 
	C172.000671,117.999054 171.971985,118.014099 171.739014,117.387375 
	C167.989075,113.606682 164.249817,109.815338 160.487000,106.047516 
	C152.771301,98.321564 148.008896,98.323364 140.300873,105.947433 
	C127.163109,118.942131 114.020920,131.932510 100.838776,144.882141 
	C92.575935,152.999252 92.447197,158.699707 100.716209,166.859985 
	C113.508598,179.484177 126.391815,192.016296 139.229919,204.594208 
	C147.772827,212.963989 152.744751,213.062317 161.192871,204.758347 
	C174.370712,191.805435 187.487976,178.790649 200.573929,165.744904 
	C201.948090,164.374954 202.939484,162.621033 204.713867,160.627731 
	C206.329483,156.085266 206.180893,151.808395 202.561264,148.215988 
	C195.404709,141.113266 188.191391,134.067749 180.770859,126.370216 
	C177.842575,123.589462 174.914291,120.808708 172.000671,117.999054 
z"/>
<path fill="#2F3845" opacity="1.000000" stroke="none" 
	d="
M215.908813,158.005493 
	C217.371628,151.388016 215.113052,145.760162 210.606644,141.208435 
	C195.375351,125.823929 179.970169,110.611061 164.560791,95.404198 
	C163.055542,93.918739 161.062912,92.927162 159.127167,91.416145 
	C161.242767,91.623222 164.160339,91.392220 165.708786,92.737312 
	C174.963104,100.776344 183.955414,109.121368 192.910919,117.497078 
	C195.316513,119.746902 197.221832,122.522255 199.471878,124.949699 
	C204.740387,130.633560 210.117371,136.216980 215.376663,141.909225 
	C219.855286,146.756531 221.263306,155.687531 218.115433,165.061874 
	C215.809738,171.928223 210.857513,175.291946 206.646988,179.954514 
	C201.372864,185.794830 196.828293,192.314301 191.374191,197.966843 
	C183.683319,205.937531 175.645859,213.608414 167.323517,220.914154 
	C164.813568,223.117523 160.964035,224.141678 157.549637,224.875900 
	C153.711014,225.701340 149.672791,225.627457 145.716339,225.857788 
	C144.580414,225.923920 143.261368,226.018112 142.308487,225.538635 
	C136.239197,222.484589 131.409363,218.177811 129.060165,211.193985 
	C132.679977,213.587936 136.282349,216.360092 140.447784,219.483841 
	C147.017899,222.543091 153.040863,223.296295 158.897568,219.558685 
	C161.747543,217.739899 164.699707,215.915909 167.089722,213.568924 
	C180.940704,199.967239 194.619385,186.190292 208.398849,172.515442 
	C212.481644,168.463654 215.743515,164.053192 215.908813,158.005493 
z"/>
<path fill="#2F3845" opacity="1.000000" stroke="none" 
	d="
M86.102066,168.062576 
	C99.730125,181.216064 113.324432,194.756042 127.044907,208.611572 
	C125.166260,207.978226 122.712242,207.481934 121.227913,206.008682 
	C109.658150,194.525085 98.259834,182.868286 86.877106,171.198105 
	C86.287643,170.593750 86.323563,169.379425 86.102066,168.062576 
z"/>
<path fill="#262E3D" opacity="1.000000" stroke="none" 
	d="
M399.374939,205.959747 
	C399.338623,197.676636 399.930603,189.488617 399.922852,181.301147 
	C399.914673,172.692688 398.865448,164.068848 399.158203,155.481995 
	C399.368713,149.307495 401.035370,143.182617 402.134766,136.597656 
	C405.518860,136.099945 408.820618,136.040176 412.561768,135.907333 
	C413.731537,137.338852 415.086334,138.838669 415.097839,140.348740 
	C415.247009,159.917221 415.205200,179.487183 415.184662,199.851288 
	C415.219238,201.103790 415.280701,201.561737 415.342163,202.019699 
	C414.507507,203.373718 413.672852,204.727753 411.977356,206.071518 
	C408.071259,206.138824 405.025970,206.216370 401.980682,206.293930 
	C401.233643,206.214310 400.486572,206.134689 399.374939,205.959747 
z"/>
<path fill="#FDFDFD" opacity="1.000000" stroke="none" 
	d="
M477.671234,161.242844 
	C478.320221,166.297791 481.953827,168.367874 485.878662,168.776321 
	C489.998016,169.205002 494.275574,167.830978 498.471985,167.906952 
	C501.022430,167.953125 503.550171,169.252808 506.526123,170.435562 
	C506.916046,173.253098 506.867981,175.624466 506.819946,177.995819 
	C503.520447,179.329361 500.220917,180.662903 496.322021,181.627045 
	C492.812469,181.225266 489.902344,181.192856 486.992188,181.160446 
	C485.604828,181.107239 484.217499,181.054031 482.009888,180.993820 
	C479.746613,180.986816 478.303589,180.986816 477.034760,180.986816 
	C475.937439,183.637680 475.026855,185.837448 474.116272,188.037216 
	C470.028046,190.719391 466.305450,194.541092 460.327759,191.750366 
	C459.644470,189.714157 459.618103,188.080170 458.878357,186.889374 
	C454.990448,180.630829 455.927948,173.716095 456.179718,166.974182 
	C456.240204,165.354935 457.881622,163.486877 459.271362,162.281174 
	C463.999237,158.179352 470.069153,158.754807 475.745850,158.012070 
	C476.280060,159.040207 476.814240,160.068359 477.671234,161.242844 
z"/>
<path fill="#293142" opacity="1.000000" stroke="none" 
	d="
M399.717834,125.237396 
	C399.466644,124.326508 399.351593,123.344917 398.963684,122.486633 
	C395.717194,115.303337 399.124939,109.589241 407.036041,108.993454 
	C408.177856,108.907455 409.312317,108.724174 410.719421,108.307243 
	C416.168884,110.538635 417.863770,114.557648 416.120544,120.609528 
	C412.498413,126.030823 407.876434,128.321899 401.180969,125.900139 
	C400.368408,125.405952 400.047882,125.329262 399.727325,125.252563 
	C399.727325,125.252563 399.727478,125.223831 399.717834,125.237396 
z"/>
<path fill="#F6F7F8" opacity="1.000000" stroke="none" 
	d="
M476.036530,207.256546 
	C484.957825,203.127472 491.814087,197.267838 495.015869,187.335602 
	C499.635437,189.576675 498.746521,193.639435 496.856323,196.812073 
	C495.090363,199.776154 492.094513,202.191895 489.213654,204.253082 
	C486.575653,206.140518 483.451874,207.472092 480.367920,208.550308 
	C479.198151,208.959274 477.541748,207.976318 476.036530,207.256546 
z"/>
<path fill="#2C3544" opacity="1.000000" stroke="none" 
	d="
M506.900085,178.453369 
	C506.867981,175.624466 506.916046,173.253098 506.889160,170.442993 
	C506.886139,160.976486 506.958069,151.948746 507.108826,142.457855 
	C507.792175,143.495178 508.891022,144.986191 508.919952,146.497665 
	C509.092468,155.518677 509.150238,164.546921 508.978912,173.567673 
	C508.869812,179.313263 508.298218,185.050095 507.558075,190.897705 
	C507.114868,186.973358 507.047546,182.942139 506.900085,178.453369 
z"/>
<path fill="#F6F7F8" opacity="1.000000" stroke="none" 
	d="
M557.044495,207.357391 
	C562.366272,206.857834 567.732422,206.730545 573.548462,206.743973 
	C571.319275,212.427979 561.501038,212.918610 557.044495,207.357391 
z"/>
<path fill="#EDEEF0" opacity="1.000000" stroke="none" 
	d="
M510.932434,206.810760 
	C515.301636,206.406174 519.718933,206.364258 524.586121,206.459732 
	C521.270874,211.265015 514.614380,211.537933 510.932434,206.810760 
z"/>
<path fill="#F2F3F4" opacity="1.000000" stroke="none" 
	d="
M630.083557,206.025208 
	C633.680542,202.565887 637.462891,199.393494 641.544312,196.081146 
	C641.671204,197.647873 642.113464,200.319656 641.217773,200.889877 
	C637.801941,203.064545 633.954895,204.561798 630.083557,206.025208 
z"/>
<path fill="#EDEEF0" opacity="1.000000" stroke="none" 
	d="
M401.996460,206.663177 
	C405.025970,206.216370 408.071259,206.138824 411.566223,206.144684 
	C411.034393,207.475128 409.858856,209.881821 409.107025,209.756027 
	C406.658722,209.346390 404.365265,208.011337 401.996460,206.663177 
z"/>
<path fill="#F6F7F8" opacity="1.000000" stroke="none" 
	d="
M449.007690,206.490967 
	C453.059387,207.072876 457.120331,208.043442 461.591553,209.089111 
	C458.482971,212.354279 451.107147,211.056564 449.007690,206.490967 
z"/>
<path fill="#F2F3F4" opacity="1.000000" stroke="none" 
	d="
M550.931946,169.799683 
	C549.546936,168.487045 548.187805,166.742676 546.804016,164.966721 
	C549.171936,162.276138 551.309143,159.847763 553.749634,157.291473 
	C553.021301,161.231674 551.989563,165.299820 550.931946,169.799683 
z"/>
<path fill="#323A46" opacity="1.000000" stroke="none" 
	d="
M487.077087,181.509277 
	C489.902344,181.192856 492.812469,181.225266 495.945496,181.625931 
	C495.952209,182.846405 495.736084,183.698639 495.280701,184.780121 
	C492.415009,183.958939 489.788513,182.908524 487.077087,181.509277 
z"/>
<path fill="#F6F7F8" opacity="1.000000" stroke="none" 
	d="
M574.055542,202.884796 
	C572.159729,200.994034 570.573242,198.881378 568.915466,196.435974 
	C572.127563,197.075226 576.467896,197.157654 574.055542,202.884796 
z"/>
<path fill="#F6F7F8" opacity="1.000000" stroke="none" 
	d="
M466.202576,209.183807 
	C467.680450,208.531616 469.404633,208.176529 471.532349,207.822556 
	C471.018982,211.395996 468.570557,209.897430 466.202576,209.183807 
z"/>
<path fill="#2C3544" opacity="1.000000" stroke="none" 
	d="
M507.115906,203.407593 
	C508.433624,203.773926 509.673340,204.553726 510.959259,205.660080 
	C509.237183,206.081390 506.805115,207.392349 507.115906,203.407593 
z"/>
<path fill="#F2F3F4" opacity="1.000000" stroke="none" 
	d="
M608.059937,208.542419 
	C608.850098,208.268494 609.707764,208.314194 610.826050,208.555283 
	C610.100281,208.787796 609.113831,208.824921 608.059937,208.542419 
z"/>
<path fill="#F6F7F8" opacity="1.000000" stroke="none" 
	d="
M568.915161,195.766678 
	C568.219727,195.344955 567.549744,194.539276 566.789673,193.423218 
	C567.446594,193.869461 568.193542,194.626099 568.915161,195.766678 
z"/>
<path fill="#EDEEF0" opacity="1.000000" stroke="none" 
	d="
M415.603333,201.972321 
	C415.280701,201.561737 415.219238,201.103790 415.263428,200.312286 
	C415.534271,200.627472 415.699371,201.276215 415.603333,201.972321 
z"/>
<path fill="#363E4E" opacity="1.000000" stroke="none" 
	d="
M773.978638,206.159027 
	C770.463257,207.699432 769.581055,205.982712 770.119080,202.392960 
	C771.440186,203.271683 772.677795,204.561401 773.978638,206.159027 
z"/>
<path fill="#363E4E" opacity="1.000000" stroke="none" 
	d="
M711.985535,206.194427 
	C709.323853,207.446457 708.845276,205.977280 709.154785,203.363739 
	C710.137573,203.951477 711.034241,204.923660 711.985535,206.194427 
z"/>
<path fill="#F4F5F5" opacity="1.000000" stroke="none" 
	d="
M624.641479,154.509308 
	C625.994507,157.667709 627.128357,160.521011 628.411926,163.750977 
	C617.569641,163.750977 607.407166,163.750977 597.121765,163.750977 
	C598.442566,156.376923 602.295410,151.185181 609.284058,149.371689 
	C615.000061,147.888443 620.487122,149.119278 624.641479,154.509308 
z"/>
<path fill="#F9F9FA" opacity="1.000000" stroke="none" 
	d="
M930.798889,187.916809 
	C930.236755,188.369873 929.674683,188.822937 928.670105,189.628769 
	C926.146545,190.967056 924.065491,191.952576 921.984375,192.938110 
	C912.033875,193.086182 906.234070,189.266953 904.795654,179.567596 
	C903.881836,173.405945 904.171082,166.533905 905.988037,160.614975 
	C909.311096,149.789383 919.822937,147.149124 929.530457,154.307983 
	C937.530518,165.649704 936.346863,176.729065 930.798889,187.916809 
z"/>
<path fill="#2F3848" opacity="1.000000" stroke="none" 
	d="
M931.184753,187.937744 
	C936.346863,176.729065 937.530518,165.649704 929.843628,154.453644 
	C935.166748,155.930267 939.235596,162.964600 938.790344,169.927567 
	C938.581604,173.192688 938.572449,176.517426 937.899536,179.693680 
	C937.134399,183.305023 936.454590,187.345047 931.184753,187.937744 
z"/>
<path fill="#2F3848" opacity="1.000000" stroke="none" 
	d="
M922.038208,193.282196 
	C924.065491,191.952576 926.146545,190.967056 928.570984,189.886200 
	C926.544006,194.047836 924.976929,194.928802 922.038208,193.282196 
z"/>
<path fill="#323A46" opacity="1.000000" stroke="none" 
	d="
M937.224365,137.667603 
	C938.046143,137.673248 938.862427,138.025192 939.845581,138.668274 
	C939.081238,138.644241 938.150024,138.329071 937.224365,137.667603 
z"/>
<path fill="#F2F3F4" opacity="1.000000" stroke="none" 
	d="
M851.403687,206.404419 
	C847.835449,207.772308 844.254700,208.925583 840.584106,209.555313 
	C838.873413,209.848785 836.988586,209.127548 835.089966,208.498840 
	C840.398315,205.072433 845.799438,202.013474 851.354309,198.867416 
	C851.354309,200.572144 851.354309,203.273804 851.403687,206.404419 
z"/>
<path fill="#F2F3F4" opacity="1.000000" stroke="none" 
	d="
M865.556396,206.799042 
	C862.973511,210.628860 859.579102,209.358170 856.079102,207.254288 
	C859.042480,206.795319 862.079163,206.736328 865.556396,206.799042 
z"/>
<path fill="#F2F3F4" opacity="1.000000" stroke="none" 
	d="
M830.643066,208.777039 
	C829.456055,212.958679 827.786926,210.266739 826.066528,208.643555 
	C827.422791,208.440399 828.857361,208.560623 830.643066,208.777039 
z"/>
<path fill="#F6F7F8" opacity="1.000000" stroke="none" 
	d="
M475.704285,157.677582 
	C470.069153,158.754807 463.999237,158.179352 459.271362,162.281174 
	C457.881622,163.486877 456.240204,165.354935 456.179718,166.974182 
	C455.927948,173.716095 454.990448,180.630829 458.878357,186.889374 
	C459.618103,188.080170 459.644470,189.714157 460.001587,191.534729 
	C454.772705,191.118042 452.008972,187.546783 450.510498,182.943359 
	C448.084747,175.491409 448.030334,167.859055 450.483795,160.451889 
	C452.453522,154.505035 456.805756,150.652130 463.222534,150.109177 
	C468.853851,149.632660 473.115448,152.179520 475.704285,157.677582 
z"/>
<path fill="#323A46" opacity="1.000000" stroke="none" 
	d="
M474.475800,188.022675 
	C475.026855,185.837448 475.937439,183.637680 477.034760,180.986816 
	C478.303589,180.986816 479.746613,180.986816 481.598816,181.066666 
	C479.617096,183.433716 477.226196,185.720932 474.475800,188.022675 
z"/>
<path fill="#F4F5F5" opacity="1.000000" stroke="none" 
	d="
M491.553009,161.064667 
	C489.032349,165.533905 485.598633,163.712799 482.079651,161.519287 
	C485.031769,161.112854 488.067352,161.053879 491.553009,161.064667 
z"/>
<path fill="#242C3C" opacity="1.000000" stroke="none" 
	d="
M329.996765,128.822479 
	C325.305817,128.869507 320.614868,128.916550 315.463104,128.889252 
	C314.343231,127.707466 313.560486,126.653038 313.056824,125.478912 
	C312.447327,124.058014 311.238007,121.871651 311.774017,121.197083 
	C312.858093,119.832741 314.993439,118.422043 316.608734,118.516083 
	C323.169037,118.898018 329.684052,120.242691 336.240295,120.447571 
	C341.096008,120.599312 345.980438,119.235947 350.868408,119.088722 
	C358.229675,118.866997 365.609467,119.008499 372.969696,119.294884 
	C373.985046,119.334396 375.672241,121.058617 375.711060,122.054977 
	C375.751984,123.105835 374.403992,124.610123 373.283600,125.222633 
	C371.044281,126.446838 368.546021,127.197289 365.623352,128.564209 
	C361.733246,129.039566 358.374451,129.094086 354.738220,129.105225 
	C354.360168,129.378815 354.259491,129.695786 354.111542,130.448578 
	C354.140350,132.924316 354.216492,134.964233 354.292603,137.004150 
	C354.230438,156.360565 354.168243,175.716980 354.104309,195.981583 
	C354.059998,199.923645 354.017487,202.957520 353.974976,205.991394 
	C353.813843,206.052521 353.652740,206.113647 352.799561,206.152588 
	C348.405701,206.049713 344.703979,205.969055 340.954346,205.530182 
	C339.966522,202.264679 338.475281,199.403244 338.228668,196.438293 
	C337.932281,192.875275 338.836792,189.229553 338.975739,185.610214 
	C339.601929,169.295120 337.546265,152.940506 339.877258,136.626678 
	C340.300842,133.662277 339.452698,130.318924 338.417938,127.427399 
	C337.907898,126.002159 335.156036,124.022385 334.256531,124.383095 
	C332.522095,125.078590 331.382812,127.258224 329.996765,128.822479 
z"/>
<path fill="#27303F" opacity="1.000000" stroke="none" 
	d="
M330.249146,128.907074 
	C331.382812,127.258224 332.522095,125.078590 334.256531,124.383095 
	C335.156036,124.022385 337.907898,126.002159 338.417938,127.427399 
	C339.452698,130.318924 340.300842,133.662277 339.877258,136.626678 
	C337.546265,152.940506 339.601929,169.295120 338.975739,185.610214 
	C338.836792,189.229553 337.932281,192.875275 338.228668,196.438293 
	C338.475281,199.403244 339.966522,202.264679 340.564331,205.616760 
	C339.159363,206.101440 338.096436,206.141312 336.675873,206.080338 
	C335.348267,205.393341 334.378326,204.807190 333.408386,204.221054 
	C333.470123,201.135025 333.531860,198.048996 333.678864,194.511108 
	C334.264221,192.677490 335.169098,191.305252 335.201843,189.912521 
	C335.534363,175.767044 335.680450,161.617279 335.987701,147.471085 
	C336.058929,144.190552 337.055145,140.860275 336.687561,137.660675 
	C336.354370,134.760117 334.742401,132.006424 333.013794,129.097748 
	C331.890717,129.059601 331.448029,129.111710 331.005371,129.163803 
	C330.837463,129.106415 330.669525,129.049042 330.249146,128.907074 
z"/>
<path fill="#F6F7F8" opacity="1.000000" stroke="none" 
	d="
M355.015656,129.148605 
	C358.374451,129.094086 361.733246,129.039566 365.544556,128.911148 
	C369.694580,128.897415 373.392090,128.957596 377.545380,129.091644 
	C377.059479,133.720612 372.879272,131.840790 370.266998,132.805054 
	C365.340820,134.623444 360.117706,135.637527 354.655334,136.995026 
	C354.216492,134.964233 354.140350,132.924316 354.288757,130.341782 
	C354.731323,129.621384 354.898773,129.404526 355.015656,129.148605 
z"/>
<path fill="#F6F7F8" opacity="1.000000" stroke="none" 
	d="
M337.033539,206.181183 
	C338.096436,206.141312 339.159363,206.101440 340.612244,205.974976 
	C344.703979,205.969055 348.405701,206.049713 352.556793,206.241302 
	C353.006866,210.661163 349.296967,211.226303 346.575958,211.744934 
	C342.900696,212.445465 339.020233,211.939941 337.051392,207.161041 
	C337.021271,206.593155 337.033539,206.181183 337.033539,206.181183 
z"/>
<path fill="#F6F7F8" opacity="1.000000" stroke="none" 
	d="
M354.338989,205.952759 
	C354.017487,202.957520 354.059998,199.923645 354.189362,196.442947 
	C359.082275,198.066986 359.257050,202.128082 354.338989,205.952759 
z"/>
<path fill="#323A46" opacity="1.000000" stroke="none" 
	d="
M380.384460,128.911072 
	C380.896393,127.270645 381.802429,125.704521 383.003052,124.050743 
	C382.868591,125.843132 384.963654,128.989319 380.384460,128.911072 
z"/>
<path fill="#D6D8DC" opacity="1.000000" stroke="none" 
	d="
M336.675873,206.080338 
	C337.033539,206.181183 337.021271,206.593155 337.010864,206.799042 
	C335.682831,206.257126 334.365173,205.509338 333.227966,204.491302 
	C334.378326,204.807190 335.348267,205.393341 336.675873,206.080338 
z"/>
<path fill="#363E4E" opacity="1.000000" stroke="none" 
	d="
M399.853577,125.486412 
	C400.047882,125.329262 400.368408,125.405952 400.841431,125.688080 
	C400.655853,125.835770 400.317810,125.778015 399.853577,125.486412 
z"/>
<path fill="#FDFDFD" opacity="1.000000" stroke="none" 
	d="
M331.057831,129.474411 
	C331.448029,129.111710 331.890717,129.059601 332.669128,129.002670 
	C333.095490,129.442642 333.186157,129.887466 333.175659,130.668610 
	C332.419769,130.598282 331.765015,130.191650 331.057831,129.474411 
z"/>
<path fill="#242E3A" opacity="1.000000" stroke="none" 
	d="
M181.001541,126.998573 
	C188.191391,134.067749 195.404709,141.113266 202.561264,148.215988 
	C206.180893,151.808395 206.329483,156.085266 204.059509,160.855194 
	C201.981537,162.179108 200.455063,163.166031 199.151535,164.390335 
	C192.284790,170.839752 185.474854,177.349640 178.644180,183.837448 
	C172.260529,189.900635 165.682114,195.773956 159.542603,202.074951 
	C152.649490,209.149399 148.892181,209.382385 141.794571,202.299515 
	C136.078964,196.595749 130.437820,190.815582 124.646263,185.190170 
	C119.167412,179.868454 113.431511,174.809158 108.009224,169.432220 
	C104.595657,166.047195 99.354782,163.249298 101.124138,157.229080 
	C102.153725,153.725906 103.810501,149.960953 106.306961,147.413025 
	C116.571396,136.936981 127.280396,126.897179 137.779861,116.649780 
	C138.828827,115.625977 139.768890,114.381233 140.407700,113.067917 
	C142.030060,109.732582 144.653534,108.584648 148.238083,107.844025 
	C154.087662,106.635429 157.952530,109.608505 162.198395,112.585114 
	C165.233322,114.712776 168.698685,116.226456 171.971985,118.014099 
	C171.971985,118.014099 172.000671,117.999054 171.995911,118.379593 
	C173.615906,123.014198 176.008942,126.427956 181.001541,126.998573 
z"/>
<path fill="#323A46" opacity="1.000000" stroke="none" 
	d="
M171.855499,117.700737 
	C168.698685,116.226456 165.233322,114.712776 162.198395,112.585114 
	C157.952530,109.608505 154.087662,106.635429 148.238083,107.844025 
	C144.653534,108.584648 142.030060,109.732582 140.407700,113.067917 
	C139.768890,114.381233 138.828827,115.625977 137.779861,116.649780 
	C127.280396,126.897179 116.571396,136.936981 106.306961,147.413025 
	C103.810501,149.960953 102.153725,153.725906 101.124138,157.229080 
	C99.354782,163.249298 104.595657,166.047195 108.009224,169.432220 
	C113.431511,174.809158 119.167412,179.868454 124.646263,185.190170 
	C130.437820,190.815582 136.078964,196.595749 141.794571,202.299515 
	C148.892181,209.382385 152.649490,209.149399 159.542603,202.074951 
	C165.682114,195.773956 172.260529,189.900635 178.644180,183.837448 
	C185.474854,177.349640 192.284790,170.839752 199.151535,164.390335 
	C200.455063,163.166031 201.981537,162.179108 203.756805,161.063965 
	C202.939484,162.621033 201.948090,164.374954 200.573929,165.744904 
	C187.487976,178.790649 174.370712,191.805435 161.192871,204.758347 
	C152.744751,213.062317 147.772827,212.963989 139.229919,204.594208 
	C126.391815,192.016296 113.508598,179.484177 100.716209,166.859985 
	C92.447197,158.699707 92.575935,152.999252 100.838776,144.882141 
	C114.020920,131.932510 127.163109,118.942131 140.300873,105.947433 
	C148.008896,98.323364 152.771301,98.321564 160.487000,106.047516 
	C164.249817,109.815338 167.989075,113.606682 171.855499,117.700737 
z"/>
<path fill="#FDFDFD" opacity="1.000000" stroke="none" 
	d="
M215.558990,158.044189 
	C215.743515,164.053192 212.481644,168.463654 208.398849,172.515442 
	C194.619385,186.190292 180.940704,199.967239 167.089722,213.568924 
	C164.699707,215.915909 161.747543,217.739899 158.897568,219.558685 
	C153.040863,223.296295 147.017899,222.543091 140.812195,219.601074 
	C141.565140,218.379196 143.134567,216.397461 143.378357,216.548950 
	C150.204880,220.791107 154.296204,215.909409 158.423859,211.986603 
	C165.471786,205.288498 172.163086,198.215424 179.202652,191.508148 
	C186.507599,184.547989 194.148529,177.939697 201.427444,170.953430 
	C203.754135,168.720276 205.097763,165.459396 207.434784,163.241577 
	C209.656906,161.132828 212.589172,159.772369 215.558990,158.044189 
z"/>
<path fill="#323A46" opacity="1.000000" stroke="none" 
	d="
M180.886200,126.684395 
	C176.008942,126.427956 173.615906,123.014198 171.988586,118.394043 
	C174.914291,120.808708 177.842575,123.589462 180.886200,126.684395 
z"/>
<path fill="#D6D8DC" opacity="1.000000" stroke="none" 
	d="
M354.738220,129.105225 
	C354.898773,129.404526 354.731323,129.621384 354.336060,129.905975 
	C354.259491,129.695786 354.360168,129.378815 354.738220,129.105225 
z"/>
</svg>