<?xml version="1.0" encoding="UTF-8" standalone="no"?>
<svg
   version="1.0"
   width="1024.000000pt"
   height="329.000000pt"
   viewBox="0 0 1024.000000 329.000000"
   preserveAspectRatio="xMidYMid meet"
   id="svg28"
   sodipodi:docname="logo (copy).svg"
   inkscape:version="1.2.2 (b0a8486541, 2022-12-01)"
   xmlns:inkscape="http://www.inkscape.org/namespaces/inkscape"
   xmlns:sodipodi="http://sodipodi.sourceforge.net/DTD/sodipodi-0.dtd"
   xmlns="http://www.w3.org/2000/svg"
   xmlns:svg="http://www.w3.org/2000/svg">
  <defs
     id="defs32" />
  <sodipodi:namedview
     id="namedview30"
     pagecolor="#ffffff"
     bordercolor="#000000"
     borderopacity="0.25"
     inkscape:showpageshadow="2"
     inkscape:pageopacity="0.0"
     inkscape:pagecheckerboard="0"
     inkscape:deskcolor="#d1d1d1"
     inkscape:document-units="pt"
     showgrid="false"
     inkscape:zoom="0.6952335"
     inkscape:cx="654.45638"
     inkscape:cy="138.0831"
     inkscape:window-width="1366"
     inkscape:window-height="696"
     inkscape:window-x="0"
     inkscape:window-y="0"
     inkscape:window-maximized="1"
     inkscape:current-layer="g26" />
  <g
     transform="translate(0.000000,329.000000) scale(0.100000,-0.100000)"
     fill="#000000"
     stroke="none"
     id="g26"
     style="fill:#1a1a1a">
    <path
       d="M735 2810 c-124 -18 -252 -115 -296 -225 l-24 -60 0 -786 0 -785 38 -76 c58 -118 134 -175 273 -203 69 -14 170 -15 804 -13 723 3 725 3 792 26 89 30 165 99 210 190 l33 67 0 795 0 795 -28 56 c-60 123 -163 200 -293 219 -80 11 -1431 12 -1509 0z m855 -431 c46 -23 523 -504 545 -549 22 -43 23 -123 2 -171 -20 -48 -513 -537 -565 -561 -46 -22 -111 -23 -160 -2 -51 21 -537 504 -563 559 -26 56 -25 132 4 183 12 24 134 150 283 295 280 273 292 282 379 270 22 -3 56 -14 75 -24z"
       id="path2"
       style="fill:#ffffff;fill-opacity:1" />
    <path
       d="M1461 2289 c-26 -10 -489 -459 -508 -493 -18 -31 -16 -87 5 -116 9 -14 121 -127 247 -252 247 -242 262 -252 326 -225 19 8 139 119 271 248 254 252 263 265 234 332 -17 39 -486 507 -509 507 -8 0 -21 2 -29 4 -7 3 -24 0 -37 -5z"
       id="path4"
       style="fill:#ffffff;fill-opacity:1" />
    <path
       d="M3969 2201 c-48 -49 -38 -125 21 -156 57 -30 127 -9 155 45 18 35 19 51 3 85 -15 34 -57 55 -108 55 -33 0 -48 -6 -71 -29z"
       id="path6"
       style="fill:#ffffff;fill-opacity:1" />
    <path
       d="M5060 1716 l0 -476 95 0 95 0 0 104 0 103 38 43 38 43 98 -152 99 -152 106 7 c58 3 107 7 109 9 1 1 -22 35 -51 76 -29 41 -92 132 -141 202 l-87 128 32 37 c18 20 73 81 123 135 50 54 93 102 94 107 2 6 -38 10 -101 10 l-105 0 -67 -72 c-37 -40 -93 -103 -124 -140 l-56 -67 -5 263 -5 263 -92 2 -93 2 0 -475z"
       id="path8"
       style="fill:#ffffff;fill-opacity:1" />
    <path
       d="M8840 1715 l0 -475 95 0 95 0 0 48 1 47 16 -26 c23 -38 88 -77 140 -85 139 -21 253 37 313 160 82 167 52 391 -66 495 -106 93 -265 97 -360 9 l-44 -41 0 172 0 171 -95 0 -95 0 0 -475z m405 71 c55 -23 87 -83 93 -171 6 -95 -11 -157 -55 -201 -55 -56 -136 -57 -197 -3 -43 37 -59 96 -54 191 4 96 29 145 88 176 51 26 78 27 125 8z"
       id="path10"
       style="fill:#ffffff;fill-opacity:1" />
    <path
       d="M3040 2095 l0 -85 145 0 145 0 0 -385 0 -385 100 0 100 0 0 385 0 385 144 0 143 0 6 43 c3 23 3 61 0 85 l-6 42 -388 0 -389 0 0 -85z"
       id="path12"
       style="fill:#ffffff;fill-opacity:1" />
    <path
       d="M7080 1705 l0 -476 103 3 102 3 0 198 0 197 203 0 202 0 0 -200 0 -200 88 0 c48 0 94 5 102 10 13 8 15 74 18 475 l3 465 -105 0 -106 0 0 -190 0 -190 -200 0 -200 0 0 190 0 190 -105 0 -105 0 0 -475z"
       id="path14"
       style="fill:#ffffff;fill-opacity:1" />
    <path
       d="M6600 2030 l0 -90 -50 0 -50 0 0 -75 0 -75 50 0 50 0 1 -182 c1 -274 11 -317 88 -362 37 -21 137 -32 205 -22 l46 7 0 68 0 68 -50 5 c-89 9 -90 11 -90 234 l0 193 70 -6 70 -6 0 77 0 76 -70 0 -70 0 0 90 0 90 -100 0 -100 0 0 -90z"
       id="path16"
       style="fill:#ffffff;fill-opacity:1" />
    <path
       d="M4520 1941 c-167 -54 -262 -204 -246 -388 14 -175 103 -288 254 -323 73 -17 195 -9 252 17 83 37 145 117 165 211 l7 32 -96 0 -95 0 -19 -43 c-20 -45 -67 -77 -113 -77 -43 0 -106 39 -126 78 -27 55 -26 223 2 271 60 103 199 106 241 6 l14 -35 95 0 95 0 -6 28 c-14 59 -48 124 -81 152 -66 59 -109 74 -218 77 -55 1 -111 -1 -125 -6z"
       id="path18"
       style="fill:#ffffff;fill-opacity:1" />
    <path
       d="M5993 1932 c-158 -56 -229 -176 -221 -371 3 -76 9 -107 30 -152 32 -69 87 -124 158 -158 49 -23 67 -26 170 -26 102 0 120 3 163 25 73 37 157 138 157 190 0 6 -34 10 -88 10 -87 0 -89 0 -111 -31 -44 -59 -131 -75 -205 -39 -52 26 -75 57 -82 115 l-7 45 253 0 253 0 -5 84 c-9 138 -65 234 -170 291 -46 26 -65 30 -148 32 -73 3 -107 -1 -147 -15z m205 -142 c30 -19 71 -85 72 -117 0 -9 -43 -13 -155 -15 -85 -2 -155 1 -155 5 0 16 31 82 48 101 42 47 134 60 190 26z"
       id="path20"
       style="fill:#ffffff;fill-opacity:1" />
    <path
       d="M3950 1590 l0 -350 95 0 95 0 0 350 0 350 -95 0 -95 0 0 -350z"
       id="path22"
       style="fill:#ffffff;fill-opacity:1" />
    <path
       d="M8042 1668 c3 -251 5 -277 25 -318 27 -58 56 -88 109 -112 91 -40 211 -20 281 47 l42 41 3 -44 3 -44 93 -1 92 -2 0 353 0 352 -93 0 -94 0 -6 -229 c-6 -253 -11 -275 -70 -311 -36 -22 -93 -26 -132 -8 -51 23 -55 46 -55 308 l0 240 -101 0 -101 0 4 -272z"
       id="path24"
       style="fill:#ffffff;fill-opacity:1" />
  </g>
</svg>
